<svg xmlns="http://www.w3.org/2000/svg" xmlns:xlink="http://www.w3.org/1999/xlink" viewBox="0 0 1920 1080"><defs><style>.cls-1{isolation:isolate;}.cls-2{opacity:0.33;}.cls-3,.cls-5,.cls-6{fill:#e6e7e8;}.cls-4{fill:#f1f2f2;}.cls-18,.cls-19,.cls-21,.cls-23,.cls-24,.cls-25,.cls-4,.cls-5,.cls-6,.cls-7,.cls-9{mix-blend-mode:multiply;}.cls-6,.cls-9{opacity:0.29;}.cls-7{fill:#d1d3d4;}.cls-14,.cls-20,.cls-8{fill:#fff;}.cls-16,.cls-9{fill:#a7a9ac;}.cls-10{opacity:0.47;}.cls-11{opacity:0.56;}.cls-12{fill:#6e6e6e;}.cls-13{fill:#bcbec0;}.cls-14{mix-blend-mode:overlay;}.cls-15{opacity:0.77;}.cls-17{opacity:0.5;}.cls-18{fill:url(#Áåçûìÿííûé_ãðàäèåíò_32);}.cls-19{fill:url(#Áåçûìÿííûé_ãðàäèåíò_8);}.cls-20{opacity:0.48;}.cls-21{fill:url(#Áåçûìÿííûé_ãðàäèåíò_5);}.cls-22{fill:#939598;}.cls-23{fill:url(#Áåçûìÿííûé_ãðàäèåíò_32-4);}.cls-24{fill:url(#Áåçûìÿííûé_ãðàäèåíò_8-2);}.cls-25{fill:url(#Áåçûìÿííûé_ãðàäèåíò_5-3);}</style><radialGradient id="Áåçûìÿííûé_ãðàäèåíò_32" cx="-817.67" cy="944.41" r="712.72" gradientTransform="matrix(0.22, -0.98, -0.98, -0.22, 1131.93, 561.65)" gradientUnits="userSpaceOnUse"><stop offset="0.48" stop-color="#fff"/><stop offset="0.52" stop-color="#f7f7f7"/><stop offset="0.59" stop-color="#e2e2e2"/><stop offset="0.68" stop-color="#bfbfbf"/><stop offset="0.77" stop-color="#8e8e8e"/><stop offset="0.88" stop-color="#505050"/><stop offset="0.99" stop-color="#050505"/><stop offset="1"/></radialGradient><radialGradient id="Áåçûìÿííûé_ãðàäèåíò_8" cx="-817.67" cy="944.41" r="712.72" gradientTransform="matrix(0.22, -0.98, -0.98, -0.22, 1131.93, 561.65)" gradientUnits="userSpaceOnUse"><stop offset="0.41" stop-color="#fff"/><stop offset="0.46" stop-color="#f7f7f7"/><stop offset="0.54" stop-color="#e2e2e2"/><stop offset="0.63" stop-color="#bfbfbf"/><stop offset="0.74" stop-color="#8e8e8e"/><stop offset="0.86" stop-color="#505050"/><stop offset="0.99" stop-color="#050505"/><stop offset="1"/></radialGradient><radialGradient id="Áåçûìÿííûé_ãðàäèåíò_5" cx="-817.65" cy="944.42" r="732.72" gradientTransform="matrix(0.22, -0.98, -0.98, -0.22, 1131.93, 561.65)" gradientUnits="userSpaceOnUse"><stop offset="0.36" stop-color="#fff"/><stop offset="0.4" stop-color="#fafafa"/><stop offset="0.44" stop-color="#ebebeb"/><stop offset="0.49" stop-color="#d2d2d2"/><stop offset="0.55" stop-color="#afafaf"/><stop offset="0.6" stop-color="#828282"/><stop offset="0.66" stop-color="#4b4b4b"/><stop offset="0.72" stop-color="#0b0b0b"/><stop offset="0.73"/><stop offset="0.76" stop-color="#323232"/><stop offset="0.81" stop-color="#6f6f6f"/><stop offset="0.86" stop-color="#a3a3a3"/><stop offset="0.9" stop-color="#cbcbcb"/><stop offset="0.94" stop-color="#e7e7e7"/><stop offset="0.97" stop-color="#f9f9f9"/><stop offset="1" stop-color="#fff"/></radialGradient><radialGradient id="Áåçûìÿííûé_ãðàäèåíò_32-4" cx="185.51" cy="-821.33" r="440.79" xlink:href="#Áåçûìÿííûé_ãðàäèåíò_32"/><radialGradient id="Áåçûìÿííûé_ãðàäèåíò_8-2" cx="185.51" cy="-821.33" r="440.79" xlink:href="#Áåçûìÿííûé_ãðàäèåíò_8"/><radialGradient id="Áåçûìÿííûé_ãðàäèåíò_5-3" cx="185.51" cy="-821.34" r="453.16" xlink:href="#Áåçûìÿííûé_ãðàäèåíò_5"/></defs><title>Rityta 1</title><g class="cls-1"><g id="Lager_1" data-name="Lager 1"><g class="cls-2"><path class="cls-3" d="M149.66,1056.74a155.43,155.43,0,0,1,3.46,18.1l13.76,4.68H122.68a121.76,121.76,0,0,0-34.83-71.22A121.82,121.82,0,0,0,.29,972.54V917.85h8.1c2.55,0,4.78,1.16,5.35,2.86l7.58,22.34a153.61,153.61,0,0,1,19.23,3.76L56,929.25c1.2-1.34,3.71-1.59,6.09-.61l14.23,6c2.35,1,3.95,3,3.84,4.73l-1.6,23.26A153.72,153.72,0,0,1,94.06,973L115,962.69c1.62-.78,4-.09,5.84,1.73l10.93,10.93c1.79,1.8,2.53,4.24,1.74,5.85l-10.33,20.91a147.32,147.32,0,0,1,11,16.48l23.28-1.46c1.79-.1,3.74,1.5,4.7,3.87l5.87,14.3c1,2.35.7,4.87-.64,6Z"/><polygon class="cls-4" points="213.28 579.77 147.06 694.48 213.28 809.19 345.74 809.19 411.97 694.48 345.74 579.77 213.28 579.77"/><polygon class="cls-5" points="317.78 706.85 280.59 771.26 317.78 835.66 392.15 835.66 429.34 771.26 392.15 706.85 317.78 706.85"/><polygon class="cls-6" points="215.03 1079.53 150.87 968.4 225.45 839.22 374.61 839.22 449.19 968.4 385.03 1079.53 215.03 1079.53"/><polygon class="cls-6" points="380.66 661.84 284.56 828.28 380.66 994.71 572.84 994.71 668.93 828.28 572.84 661.84 380.66 661.84"/><polygon class="cls-5" points="265.61 661.84 249.06 690.51 265.61 719.17 298.71 719.17 315.26 690.51 298.71 661.84 265.61 661.84"/><polygon class="cls-7" points="352.02 552.63 339.48 574.35 352.02 596.07 377.1 596.07 389.64 574.35 377.1 552.63 352.02 552.63"/><path class="cls-8" d="M213.94,386.65,179.56,446.2H110.8L76.42,386.65l34.38-59.55h68.76Zm-134.53,0,32.89,57h65.77l32.89-57-32.89-57H112.29Z"/><polygon class="cls-8" points="53.09 378.69 0.29 378.69 0.29 375.51 0.97 376.69 51.94 376.69 77.42 332.55 51.94 288.4 0.97 288.4 0.29 289.58 0.29 286.4 53.09 286.4 79.73 332.55 53.09 378.69"/><polygon class="cls-8" points="0.29 510.47 0.29 504.52 22.19 466.57 0.29 428.63 0.29 422.68 25.63 466.57 0.29 510.47"/><path class="cls-8" d="M217.9,507.61l-39.63,68.65H99L59.37,507.61,99,439h79.27Zm-155.09,0,37.91,65.67h75.83l37.91-65.67-37.91-65.67H100.72Z"/><polygon class="cls-8" points="88.54 482.62 0.29 482.62 0.29 477.66 85.68 477.66 148.81 368.3 85.68 258.95 0.29 258.95 0.29 253.99 88.54 253.99 154.54 368.3 88.54 482.62"/><path class="cls-8" d="M410.3,576.13,386.72,617H339.55L316,576.13l23.58-40.85h47.17Zm-92.29,0,22.56,39.07H385.7l22.56-39.07L385.7,537.05H340.58Z"/><polygon class="cls-4" points="103.19 731.34 52.63 818.91 103.19 906.49 204.32 906.49 254.88 818.91 204.32 731.34 103.19 731.34"/><polygon class="cls-5" points="192.02 831.28 154.84 895.69 192.02 960.1 266.39 960.1 303.58 895.69 266.39 831.28 192.02 831.28"/><polygon class="cls-6" points="32.79 1079.53 99.69 963.65 248.85 963.65 315.75 1079.53 32.79 1079.53"/><polygon class="cls-6" points="232.03 1079.53 158.81 952.71 254.9 786.27 447.08 786.27 543.18 952.71 469.96 1079.53 232.03 1079.53"/><polygon class="cls-6" points="340.28 412.98 244.19 579.42 340.28 745.85 532.47 745.85 628.56 579.42 532.47 412.98 340.28 412.98"/><polygon class="cls-5" points="139.85 786.27 123.3 814.94 139.85 843.61 172.95 843.61 189.5 814.94 172.95 786.27 139.85 786.27"/><path class="cls-8" d="M284.55,700.56,261,741.41H213.8l-23.58-40.85,23.58-40.85H261Zm-92.29,0,22.56,39.07h45.12l22.56-39.07-22.56-39.07H214.82Z"/><polygon class="cls-4" points="115.01 843.21 67.96 924.7 115.01 1006.18 209.1 1006.18 256.15 924.7 209.1 843.21 115.01 843.21"/><polygon class="cls-5" points="189.24 933.48 162.82 979.24 189.24 1024.99 242.07 1024.99 268.49 979.24 242.07 933.48 189.24 933.48"/><polygon class="cls-6" points="93.62 1079.53 123.65 1027.52 229.61 1027.52 259.64 1079.53 93.62 1079.53"/><polygon class="cls-9" points="200.16 1079.53 165.65 1019.74 233.91 901.51 370.43 901.51 438.7 1019.74 404.18 1079.53 200.16 1079.53"/><polygon class="cls-9" points="467.22 496.45 398.95 614.68 467.22 732.92 603.74 732.92 672.01 614.68 603.74 496.45 467.22 496.45"/><polygon class="cls-5" points="152.18 901.51 140.42 921.87 152.18 942.24 175.69 942.24 187.45 921.87 175.69 901.51 152.18 901.51"/><polygon class="cls-5" points="428.84 811.5 417.08 831.86 428.84 852.23 452.36 852.23 464.11 831.86 452.36 811.5 428.84 811.5"/><g class="cls-10"><polygon class="cls-8" points="362.84 1079.53 337.5 1035.64 247.8 1035.64 222.46 1079.53 218.39 1079.53 245.76 1032.12 339.54 1032.12 366.91 1079.53 362.84 1079.53"/></g><path class="cls-8" d="M255,840.62l-16.75,29H204.71l-16.75-29,16.75-29h33.51Zm-65.56,0,16,27.76h32.05l16-27.76-16-27.76H205.44Z"/><polygon class="cls-4" points="36.8 950.88 0.89 1013.09 36.8 1075.3 108.64 1075.3 144.56 1013.09 108.64 950.88 36.8 950.88"/><polygon class="cls-5" points="80.36 1079.53 73.49 1067.63 99.91 1021.88 152.74 1021.88 179.16 1067.63 172.29 1079.53 80.36 1079.53"/><polygon class="cls-6" points="92.83 1079.53 144.57 989.9 281.1 989.9 332.84 1079.53 92.83 1079.53"/><polygon class="cls-6" points="384.17 580.87 315.91 699.11 384.17 817.34 520.7 817.34 588.96 699.11 520.7 580.87 384.17 580.87"/><polygon class="cls-6" points="205.23 724.72 136.96 842.96 205.23 961.19 341.75 961.19 410.01 842.96 341.75 724.72 205.23 724.72"/><polygon class="cls-6" points="319.07 473.21 250.81 591.45 319.07 709.68 455.59 709.68 523.86 591.45 455.59 473.21 319.07 473.21"/><polygon class="cls-6" points="85.28 400.92 0.29 400.92 0.29 164.45 85.28 164.45 153.54 282.68 85.28 400.92"/><polygon class="cls-5" points="62.84 989.9 51.09 1010.27 62.84 1030.63 86.36 1030.63 98.12 1010.27 86.36 989.9 62.84 989.9"/><path class="cls-8" d="M165.63,929l-16.75,29H115.37L98.62,929l16.75-29h33.51Zm-65.56,0,16,27.76h32.05l16-27.76-16-27.76H116.1Z"/><polygon class="cls-5" points="272.23 775.68 241.11 829.57 272.23 883.46 334.45 883.46 365.56 829.57 334.45 775.68 272.23 775.68"/><polygon class="cls-5" points="461.8 1079.53 411.88 993.05 470.12 892.17 586.6 892.17 644.85 993.05 594.92 1079.53 461.8 1079.53"/><polygon class="cls-5" points="441.66 820.52 411.21 873.25 441.66 925.99 502.55 925.99 532.99 873.25 502.55 820.52 441.66 820.52"/><polygon class="cls-5" points="29.62 670.61 10.06 704.48 29.62 738.35 68.72 738.35 88.28 704.48 68.72 670.61 29.62 670.61"/><polygon class="cls-5" points="59.46 868.11 5.79 868.11 0.29 858.58 0.29 784.68 5.79 775.15 59.46 775.15 86.29 821.63 59.46 868.11"/><polygon class="cls-5" points="50.89 706.35 38.22 728.3 50.89 750.26 76.24 750.26 88.92 728.3 76.24 706.35 50.89 706.35"/><polygon class="cls-5" points="380.94 902.92 369.7 922.4 380.94 941.87 403.43 941.87 414.67 922.4 403.43 902.92 380.94 902.92"/><g class="cls-10"><path class="cls-8" d="M522.54,880.59l-66,114.31h-132l-66-114.31,66-114.32h132Zm-258.27,0L327.4,989.94H453.68l63.14-109.35L453.68,771.23H327.4Z"/></g><g class="cls-10"><polygon class="cls-8" points="380.1 1079.53 458.49 943.75 324.12 711.03 55.39 711.03 0.29 806.47 0.29 785.36 49.3 700.47 330.22 700.47 470.68 943.75 392.29 1079.53 380.1 1079.53"/></g><g class="cls-11"><path class="cls-8" d="M664.18,737.62l-66,114.32h-132l-66-114.32,66-114.31h132Zm-258.27,0L469,847H595.31l63.14-109.35L595.31,628.27H469Z"/></g><path class="cls-8" d="M247.54,864.85l-10.21,17.68H216.91l-10.21-17.68,10.21-17.68h20.42Zm-40,0,9.77,16.92h19.53l9.77-16.92-9.77-16.92H217.36Z"/><path class="cls-8" d="M429.55,923.42,410.75,956H373.13l-18.81-32.57,18.81-32.58h37.61Zm-73.6,0,18,31.16h36l18-31.16-18-31.16h-36Z"/><g class="cls-10"><path class="cls-8" d="M394.12,740.93l-40,69.31h-80l-40-69.31,40-69.31h80Zm-156.59,0,38.28,66.3h76.56l38.28-66.3-38.28-66.3H275.81Z"/></g><g class="cls-10"><path class="cls-8" d="M318.66,918.31l-40,69.31h-80l-40-69.31,40-69.31h80Zm-156.59,0,38.28,66.3h76.56l38.28-66.3L276.91,852H200.35Z"/></g><g class="cls-10"><path class="cls-8" d="M294.54,564.25l-40,69.31h-80l-40-69.31,40-69.31h80Zm-156.59,0,38.28,66.3h76.56l38.28-66.3-38.28-66.3H176.23Z"/></g><path class="cls-12" d="M228.6,686.43l-1,1a.5.5,0,0,0-.16.52l1,2a14.05,14.05,0,0,0-.86,1.3l-2.22-.15a.49.49,0,0,0-.43.34l-.54,1.28a.49.49,0,0,0,.05.54l1.69,1.49a14.57,14.57,0,0,0-.31,1.59l-2.14.73a.49.49,0,0,0-.26.48v1.39a.49.49,0,0,0,.26.48l2.16.74a13.84,13.84,0,0,0,.3,1.46l-1.73,1.51a.5.5,0,0,0-.06.55l.53,1.28a.49.49,0,0,0,.42.35l2.3-.14a13.38,13.38,0,0,0,.88,1.31l-1,2.07a.49.49,0,0,0,.16.52l1,1a.49.49,0,0,0,.52.16l2.07-1c.39.3.8.57,1.22.82l-.16,2.29a.49.49,0,0,0,.34.42l1.28.54a.49.49,0,0,0,.55-.05l1.52-1.72a13.24,13.24,0,0,0,1.55.32l.74,2.16a.49.49,0,0,0,.48.26h1.39a.5.5,0,0,0,.48-.26l.73-2.15a13.52,13.52,0,0,0,1.49-.28l1.48,1.7a.49.49,0,0,0,.54.06l1.29-.52a.49.49,0,0,0,.35-.42l-.14-2.23a13,13,0,0,0,1.38-.91l2,1a.5.5,0,0,0,.53-.16l1-1a.5.5,0,0,0,.16-.53l-1-2a13.43,13.43,0,0,0,.9-1.32l2.17.15a.49.49,0,0,0,.42-.34l.54-1.28a.49.49,0,0,0-.06-.55l-1.61-1.42a13.42,13.42,0,0,0,.35-1.7l2-.69a.49.49,0,0,0,.26-.48v-1.39a.49.49,0,0,0-.26-.48l-2-.68a13.93,13.93,0,0,0-.31-1.63l1.59-1.39a.49.49,0,0,0,.06-.54l-.53-1.29a.49.49,0,0,0-.42-.35l-2.09.13a13.3,13.3,0,0,0-1-1.48l.93-1.88a.5.5,0,0,0-.16-.53l-1-1a.49.49,0,0,0-.52-.16l-1.88.93a13.87,13.87,0,0,0-1.39-.93l.14-2.09a.5.5,0,0,0-.35-.43l-1.28-.54a.5.5,0,0,0-.55.05L243,684.84a13.6,13.6,0,0,0-1.73-.34l-.68-2a.49.49,0,0,0-.48-.26h-1.39a.49.49,0,0,0-.48.26l-.69,2a14.49,14.49,0,0,0-1.6.33l-1.41-1.62a.5.5,0,0,0-.54-.06l-1.29.52a.5.5,0,0,0-.35.43l.14,2.17a13.36,13.36,0,0,0-1.4,1l-2-1A.49.49,0,0,0,228.6,686.43Zm3.1,4a11,11,0,1,1,0,15.55A11,11,0,0,1,231.7,690.38Z"/><path class="cls-13" d="M388.67,917.51l-.44.44a.23.23,0,0,0-.07.24l.44.9a6.32,6.32,0,0,0-.39.58l-1-.07a.22.22,0,0,0-.19.16l-.24.58a.22.22,0,0,0,0,.25l.76.67a6.51,6.51,0,0,0-.14.72l-1,.33a.22.22,0,0,0-.12.22v.63a.22.22,0,0,0,.12.22l1,.33a6.38,6.38,0,0,0,.13.66l-.78.68a.22.22,0,0,0,0,.25l.24.58a.22.22,0,0,0,.19.16l1-.06a5.71,5.71,0,0,0,.4.59l-.46.93a.22.22,0,0,0,.07.24l.44.44a.22.22,0,0,0,.24.07l.93-.46a6.36,6.36,0,0,0,.55.37l-.07,1a.22.22,0,0,0,.16.19l.58.24a.22.22,0,0,0,.25,0l.69-.78a5.89,5.89,0,0,0,.7.14l.33,1a.22.22,0,0,0,.22.12h.63a.23.23,0,0,0,.22-.12l.33-1a6.26,6.26,0,0,0,.67-.13l.67.77a.22.22,0,0,0,.25,0l.58-.24a.22.22,0,0,0,.16-.19l-.06-1a5.9,5.9,0,0,0,.62-.41l.9.44a.22.22,0,0,0,.24-.07l.44-.44a.22.22,0,0,0,.07-.24l-.44-.88a6,6,0,0,0,.41-.59l1,.07a.22.22,0,0,0,.19-.15l.24-.58a.22.22,0,0,0,0-.25l-.73-.64a6.16,6.16,0,0,0,.16-.77l.91-.31a.22.22,0,0,0,.12-.22v-.63a.22.22,0,0,0-.12-.22l-.91-.31a6.24,6.24,0,0,0-.14-.73l.72-.63a.22.22,0,0,0,0-.24l-.24-.58a.22.22,0,0,0-.19-.16l-.95.06a5.77,5.77,0,0,0-.44-.67l.42-.85a.22.22,0,0,0-.07-.24l-.44-.44a.22.22,0,0,0-.24-.07l-.85.42a6.35,6.35,0,0,0-.63-.42l.07-.94a.22.22,0,0,0-.16-.19l-.58-.24a.23.23,0,0,0-.25,0l-.63.71a6.48,6.48,0,0,0-.78-.15l-.31-.91a.22.22,0,0,0-.22-.12h-.63a.22.22,0,0,0-.22.12l-.31.91a6.64,6.64,0,0,0-.72.15l-.64-.73a.22.22,0,0,0-.24,0l-.58.24a.23.23,0,0,0-.16.19l.06,1a6,6,0,0,0-.63.43l-.89-.44A.22.22,0,0,0,388.67,917.51Zm1.4,1.78a5,5,0,1,1,0,7A5,5,0,0,1,390.07,919.29Z"/><path class="cls-8" d="M219.47,897.81l-1.56,1.56a.78.78,0,0,0-.25.83l1.55,3.16a22.38,22.38,0,0,0-1.36,2.05l-3.52-.24a.78.78,0,0,0-.68.55l-.85,2a.78.78,0,0,0,.09.86l2.68,2.37a23,23,0,0,0-.49,2.52l-3.4,1.16a.78.78,0,0,0-.41.76v2.21a.78.78,0,0,0,.41.76l3.43,1.17a22.12,22.12,0,0,0,.47,2.31l-2.75,2.39a.78.78,0,0,0-.09.86l.84,2a.78.78,0,0,0,.66.55l3.64-.23a20.9,20.9,0,0,0,1.39,2.07l-1.62,3.28a.78.78,0,0,0,.25.83l1.56,1.56a.78.78,0,0,0,.83.25l3.28-1.62a22.54,22.54,0,0,0,1.93,1.31l-.25,3.64a.77.77,0,0,0,.54.67l2,.85a.78.78,0,0,0,.86-.08l2.41-2.73a21.29,21.29,0,0,0,2.46.51l1.17,3.43a.77.77,0,0,0,.76.41h2.21a.79.79,0,0,0,.77-.41l1.15-3.4a21.25,21.25,0,0,0,2.36-.44l2.35,2.69a.77.77,0,0,0,.86.09l2-.83a.77.77,0,0,0,.55-.67l-.21-3.53a20.44,20.44,0,0,0,2.19-1.44l3.15,1.55a.78.78,0,0,0,.83-.25l1.56-1.55a.8.8,0,0,0,.25-.83L254,929.71a21.73,21.73,0,0,0,1.43-2.09l3.44.24a.78.78,0,0,0,.67-.54l.86-2a.78.78,0,0,0-.09-.86l-2.55-2.26a21.26,21.26,0,0,0,.56-2.69l3.21-1.09a.78.78,0,0,0,.41-.77v-2.2a.77.77,0,0,0-.41-.76l-3.18-1.08a22.22,22.22,0,0,0-.49-2.58l2.52-2.2a.78.78,0,0,0,.09-.86l-.84-2a.79.79,0,0,0-.67-.55l-3.32.21a20.93,20.93,0,0,0-1.56-2.35l1.47-3a.79.79,0,0,0-.25-.83l-1.56-1.56a.78.78,0,0,0-.83-.25l-3,1.47a22.07,22.07,0,0,0-2.2-1.48l.23-3.32a.79.79,0,0,0-.55-.68l-2-.85a.79.79,0,0,0-.87.09l-2.21,2.5a22,22,0,0,0-2.74-.54l-1.08-3.19a.78.78,0,0,0-.76-.41h-2.2a.78.78,0,0,0-.76.41l-1.09,3.21a22.75,22.75,0,0,0-2.53.52l-2.24-2.57a.79.79,0,0,0-.86-.09l-2,.83a.79.79,0,0,0-.55.68l.22,3.43a21,21,0,0,0-2.23,1.51l-3.11-1.54A.78.78,0,0,0,219.47,897.81Zm4.92,6.26a17.44,17.44,0,1,1,0,24.66A17.44,17.44,0,0,1,224.39,904.07Z"/><path class="cls-3" d="M326.68,713.81l-1.86,1.86a.93.93,0,0,0-.3,1l1.86,3.77a25.92,25.92,0,0,0-1.62,2.45l-4.2-.29a.93.93,0,0,0-.81.65l-1,2.43a.94.94,0,0,0,.1,1l3.2,2.82a27.31,27.31,0,0,0-.59,3l-4.06,1.38a.93.93,0,0,0-.49.91v2.63a.93.93,0,0,0,.49.91l4.1,1.39a26.44,26.44,0,0,0,.56,2.76l-3.28,2.85a.94.94,0,0,0-.11,1l1,2.43a.93.93,0,0,0,.79.66l4.35-.27a25,25,0,0,0,1.66,2.47l-1.93,3.92a.93.93,0,0,0,.3,1l1.86,1.86a.93.93,0,0,0,1,.3l3.92-1.93a26.58,26.58,0,0,0,2.3,1.56l-.3,4.34a.92.92,0,0,0,.65.8l2.43,1a.93.93,0,0,0,1-.1l2.88-3.26a25.1,25.1,0,0,0,2.94.61l1.39,4.1a.92.92,0,0,0,.91.49h2.63a.94.94,0,0,0,.92-.49l1.38-4.07a25.56,25.56,0,0,0,2.82-.53l2.8,3.22a.93.93,0,0,0,1,.11l2.44-1a.93.93,0,0,0,.66-.8l-.26-4.21a24.35,24.35,0,0,0,2.62-1.71l3.77,1.85a.94.94,0,0,0,1-.3l1.86-1.86a1,1,0,0,0,.3-1l-1.84-3.71a25.68,25.68,0,0,0,1.71-2.49l4.11.28a.93.93,0,0,0,.8-.65l1-2.43a.93.93,0,0,0-.11-1l-3-2.69a25.61,25.61,0,0,0,.67-3.22l3.83-1.3a.93.93,0,0,0,.49-.92v-2.63a.92.92,0,0,0-.49-.91l-3.8-1.29a26.45,26.45,0,0,0-.59-3.08l3-2.62a.94.94,0,0,0,.11-1l-1-2.44a.93.93,0,0,0-.8-.66l-4,.25a25.32,25.32,0,0,0-1.87-2.81l1.76-3.56a.94.94,0,0,0-.3-1l-1.86-1.86a.93.93,0,0,0-1-.29l-3.57,1.75a25.88,25.88,0,0,0-2.63-1.77l.27-4a.94.94,0,0,0-.65-.81l-2.42-1a1,1,0,0,0-1,.1l-2.64,3a26.24,26.24,0,0,0-3.28-.64l-1.29-3.8a.92.92,0,0,0-.91-.49h-2.63a.93.93,0,0,0-.91.49l-1.31,3.83a27.2,27.2,0,0,0-3,.62l-2.67-3.07a.94.94,0,0,0-1-.11l-2.44,1a1,1,0,0,0-.66.81l.26,4.1a25.44,25.44,0,0,0-2.66,1.81l-3.72-1.84A.93.93,0,0,0,326.68,713.81Zm5.87,7.48a20.82,20.82,0,1,1,0,29.44A20.82,20.82,0,0,1,332.55,721.29Z"/><polygon class="cls-14" points="149.54 804.72 143.31 815.52 149.54 826.32 162.01 826.32 168.24 815.52 162.01 804.72 149.54 804.72"/><polygon class="cls-14" points="315.96 851.38 305.14 870.12 315.96 888.86 337.59 888.86 348.41 870.12 337.59 851.38 315.96 851.38"/><path class="cls-5" d="M445.39,715.24l-10.93,10.92c-1.82,1.83-2.55,4.23-1.76,5.82l10.89,22.12a155.73,155.73,0,0,0-9.53,14.4l-24.66-1.71c-1.8-.13-3.78,1.46-4.76,3.83l-6,14.25c-1,2.36-.74,4.87.59,6.06l18.8,16.58a160,160,0,0,0-3.44,17.63l-23.83,8.13c-1.7.58-2.89,2.8-2.91,5.34v15.46c0,2.55,1.21,4.79,2.89,5.33l24,8.19a155.09,155.09,0,0,0,3.29,16.19l-19.25,16.74c-1.32,1.16-1.6,3.69-.62,6.06l5.88,14.28c1,2.38,2.9,4,4.66,3.87l25.54-1.58a147.55,147.55,0,0,0,9.76,14.53l-11.35,23c-.8,1.6-.06,4,1.74,5.82l10.93,10.92c1.82,1.8,4.22,2.55,5.82,1.76l23-11.34A158.16,158.16,0,0,0,487.76,977l-1.74,25.5c-.14,1.76,1.45,3.77,3.81,4.73l14.25,6c2.36,1,4.9.75,6.06-.58L527,993.51a148.21,148.21,0,0,0,17.27,3.56l8.18,24c.56,1.7,2.8,2.89,5.33,2.89h15.46c2.55,0,4.79-1.19,5.38-2.89l8.09-23.87a151.2,151.2,0,0,0,16.54-3.1L619.74,1013c1.17,1.37,3.68,1.61,6.06.63l14.3-5.85c2.37-1,4-2.92,3.85-4.72l-1.51-24.74a143.69,143.69,0,0,0,15.36-10.07l22.11,10.88c1.59.79,4.06.07,5.85-1.74l10.92-10.9c1.79-1.83,2.53-4.27,1.74-5.85l-10.79-21.81a151.72,151.72,0,0,0,10-14.63l24.12,1.65c1.79.13,3.72-1.47,4.72-3.8l6-14.27c1-2.37.73-4.89-.63-6.06l-17.9-15.81a150.33,150.33,0,0,0,3.9-18.88l22.5-7.63c1.71-.57,2.89-2.8,2.89-5.39l0-15.42c0-2.55-1.15-4.8-2.85-5.36L718,825.66a155.5,155.5,0,0,0-3.46-18.1l17.69-15.41c1.34-1.17,1.59-3.69.64-6L727,771.8c-1-2.37-2.92-4-4.7-3.87L699,769.4a147.46,147.46,0,0,0-11-16.48L698.41,732c.78-1.61,0-4-1.74-5.85l-10.93-10.93c-1.8-1.82-4.22-2.51-5.84-1.73L659,723.8a153.57,153.57,0,0,0-15.46-10.39l1.6-23.26c.11-1.78-1.48-3.75-3.84-4.73l-14.23-6c-2.38-1-4.89-.73-6.09.61l-15.5,17.57a153.61,153.61,0,0,0-19.23-3.76l-7.58-22.34c-.57-1.7-2.8-2.86-5.35-2.86l-15.44,0c-2.56,0-4.79,1.2-5.36,2.91L544.83,694a160,160,0,0,0-17.77,3.62l-15.7-18c-1.16-1.31-3.69-1.6-6-.63L491,684.84c-2.34,1-4,2.94-3.87,4.75l1.52,24.07A149.29,149.29,0,0,0,473,724.26l-21.83-10.79C449.61,712.68,447.21,713.42,445.39,715.24Zm34.47,43.91a122.26,122.26,0,1,1,0,172.88A122.25,122.25,0,0,1,479.86,759.15Z"/></g><g class="cls-2"><polygon class="cls-4" points="924.18 1079.53 924.18 909.93 1141.58 784.41 1358.98 909.93 1358.98 1079.53 924.18 1079.53"/><polygon class="cls-5" points="1165.02 962.92 1287.09 1033.4 1409.16 962.92 1409.16 821.97 1287.09 751.5 1165.02 821.97 1165.02 962.92"/><polygon class="cls-6" points="1415.9 1079.53 1415.9 855.21 1660.72 713.86 1905.55 855.21 1905.55 1079.53 1415.9 1079.53"/><polygon class="cls-6" points="1079.72 843.76 1395.16 1025.87 1710.59 843.76 1710.59 479.52 1395.16 297.41 1079.72 479.52 1079.72 843.76"/><polygon class="cls-5" points="1110.43 1079.53 1079.72 1061.8 1079.72 999.06 1134.05 967.7 1188.38 999.06 1188.38 1061.8 1157.68 1079.53 1110.43 1079.53"/><polygon class="cls-7" points="872.75 898.02 913.91 921.78 955.07 898.02 955.07 850.5 913.91 826.73 872.75 850.5 872.75 898.02"/><path class="cls-8" d="M917.28,787.57l77.42,44.7v89.39l-77.42,44.7-77.42-44.7V832.26Zm0,174.91,74.06-42.76V834.2l-74.06-42.76L843.22,834.2v85.51Z"/><polygon class="cls-5" points="1400.85 1079.53 1400.85 1060.31 1522.91 989.83 1644.98 1060.31 1644.98 1079.53 1400.85 1079.53"/><polygon class="cls-6" points="1676.01 1079.53 1896.55 952.2 1920 965.74 1920 1079.53 1676.01 1079.53"/><polygon class="cls-6" points="1315.55 1079.53 1315.55 717.86 1630.98 535.74 1920 702.6 1920 1079.53 1315.55 1079.53"/><polygon class="cls-6" points="883.91 1079.53 608.07 920.27 608.07 556.04 923.51 373.93 1238.94 556.04 1238.94 920.27 963.11 1079.53 883.91 1079.53"/><polygon class="cls-8" points="1227.16 1079.53 1227.16 1072.54 1153.1 1029.78 1079.05 1072.54 1079.05 1079.53 1075.69 1079.53 1075.69 1070.6 1153.1 1025.9 1230.52 1070.6 1230.52 1079.53 1227.16 1079.53"/><polygon class="cls-5" points="1641.09 1079.53 1681.26 1056.34 1721.43 1079.53 1641.09 1079.53"/><polygon class="cls-6" points="1860.21 1079.53 1920 1045.01 1920 1079.53 1860.21 1079.53"/><polygon class="cls-9" points="1533.95 1079.53 1533.95 863.13 1758.03 733.75 1920 827.27 1920 1079.53 1533.95 1079.53"/><polygon class="cls-9" points="766.26 679.7 990.34 809.08 1214.43 679.7 1214.43 420.95 990.34 291.58 766.26 420.95 766.26 679.7"/><polygon class="cls-5" points="1363.35 752.44 1401.95 774.72 1440.54 752.44 1440.54 707.87 1401.95 685.59 1363.35 707.87 1363.35 752.44"/><g class="cls-10"><polygon class="cls-8" points="1788.16 1079.53 1781.48 1079.53 1781.48 921.69 1920 841.72 1920 849.42 1788.16 925.54 1788.16 1079.53"/></g><polygon class="cls-6" points="1701.48 1079.53 1701.48 1032.44 1920 906.27 1920 1079.53 1701.48 1079.53"/><polygon class="cls-6" points="926.26 837.1 1150.35 966.47 1374.43 837.1 1374.43 578.35 1150.35 448.98 926.26 578.35 926.26 837.1"/><polygon class="cls-6" points="1198.89 1079.53 1198.89 917.49 1422.97 788.11 1647.06 917.49 1647.06 1079.53 1198.89 1079.53"/><polygon class="cls-6" points="928.42 1079.53 722.22 960.48 722.22 701.73 946.3 572.36 1170.39 701.73 1170.39 960.48 964.19 1079.53 928.42 1079.53"/><polygon class="cls-5" points="1347.91 1079.53 1295.48 1049.25 1295.48 931.33 1397.61 872.36 1499.74 931.33 1499.74 1049.25 1447.3 1079.53 1347.91 1079.53"/><polygon class="cls-5" points="1516.25 674.2 1707.44 784.59 1898.63 674.2 1898.63 453.43 1707.44 343.05 1516.25 453.43 1516.25 674.2"/><polygon class="cls-5" points="1380.46 728.14 1480.4 785.84 1580.34 728.14 1580.34 612.74 1480.4 555.04 1380.46 612.74 1380.46 728.14"/><polygon class="cls-5" points="1536.63 843.22 1573.54 864.52 1610.44 843.22 1610.44 800.6 1573.54 779.29 1536.63 800.6 1536.63 843.22"/><g class="cls-10"><path class="cls-8" d="M1494.3,574.86,1711,699.94V950.11L1494.3,1075.19,1277.64,950.11V699.94Zm0,489.48,207.25-119.66V705.36L1494.3,585.71,1287,705.36V944.68Z"/></g><g class="cls-10"><polygon class="cls-8" points="1172.94 950.89 1172.94 1079.53 1152.93 1079.53 1152.93 939.35 1614.02 673.15 1920 849.8 1920 872.9 1614.02 696.24 1172.94 950.89"/></g><g class="cls-11"><path class="cls-8" d="M1223.35,306.42,1440,431.5V681.67L1223.35,806.75,1006.7,681.67V431.5Zm0,489.48L1430.6,676.24V436.92L1223.35,317.27,1016.1,436.92V676.24Z"/></g><path class="cls-8" d="M1575.48,751.08l61.74,35.64V858l-61.74,35.64L1513.74,858V786.72Zm0,139.48,59.06-34.1V788.27l-59.06-34.1-59.06,34.1v68.19Z"/><g class="cls-10"><polygon class="cls-8" points="1291.08 1079.53 1355.27 1042.47 1355.27 897.37 1229.61 824.83 1103.96 897.37 1103.96 1042.47 1168.15 1079.53 1156.75 1079.53 1098.26 1045.76 1098.26 894.08 1229.61 818.25 1360.97 894.08 1360.97 1045.76 1302.48 1079.53 1291.08 1079.53"/></g><g class="cls-10"><polygon class="cls-8" points="1691.45 1079.53 1691.45 1040.37 1565.79 967.83 1440.14 1040.37 1440.14 1079.53 1434.44 1079.53 1434.44 1037.08 1565.79 961.25 1697.15 1037.08 1697.15 1079.53 1691.45 1079.53"/></g><g class="cls-10"><polygon class="cls-8" points="1009.05 1079.53 894.75 1013.54 780.46 1079.53 769.06 1079.53 894.75 1006.96 1020.44 1079.53 1009.05 1079.53"/></g><path class="cls-13" d="M1564.27,828.56l.84.84a.42.42,0,0,0,.45.14l1.7-.84a11.89,11.89,0,0,0,1.11.73l-.13,1.9a.42.42,0,0,0,.29.37l1.09.46a.42.42,0,0,0,.47,0l1.28-1.45a12.62,12.62,0,0,0,1.36.27l.62,1.83a.42.42,0,0,0,.41.22h1.19a.42.42,0,0,0,.41-.22l.63-1.85a11.89,11.89,0,0,0,1.25-.25l1.29,1.48a.42.42,0,0,0,.47,0l1.1-.45a.42.42,0,0,0,.3-.36l-.12-2a11.46,11.46,0,0,0,1.12-.75l1.77.87a.42.42,0,0,0,.45-.13l.84-.84a.42.42,0,0,0,.13-.45l-.87-1.77a11.83,11.83,0,0,0,.7-1l2,.13a.42.42,0,0,0,.36-.29l.46-1.09a.42.42,0,0,0,0-.47l-1.47-1.3a11.66,11.66,0,0,0,.27-1.33l1.85-.63a.42.42,0,0,0,.22-.41v-1.19a.43.43,0,0,0-.22-.41l-1.84-.62a11.62,11.62,0,0,0-.24-1.27l1.45-1.27a.42.42,0,0,0,0-.47l-.45-1.1a.42.42,0,0,0-.36-.3l-1.9.12a11,11,0,0,0-.78-1.18l.84-1.7a.42.42,0,0,0-.13-.45l-.84-.84a.43.43,0,0,0-.45-.13l-1.68.83a11.7,11.7,0,0,0-1.12-.77l.13-1.85a.42.42,0,0,0-.29-.36l-1.1-.46a.42.42,0,0,0-.47,0l-1.22,1.38a11.56,11.56,0,0,0-1.45-.3l-.59-1.73a.42.42,0,0,0-.41-.22h-1.19a.41.41,0,0,0-.41.22l-.58,1.72a11.67,11.67,0,0,0-1.39.27l-1.19-1.36a.42.42,0,0,0-.46,0l-1.1.45a.42.42,0,0,0-.3.36l.11,1.79a11.45,11.45,0,0,0-1.27.84l-1.61-.79a.43.43,0,0,0-.45.13l-.84.84a.42.42,0,0,0-.13.45l.79,1.61a12.08,12.08,0,0,0-.8,1.19l-1.79-.12a.43.43,0,0,0-.36.3l-.46,1.09a.43.43,0,0,0,0,.47l1.35,1.19a11.81,11.81,0,0,0-.29,1.48l-1.72.58a.42.42,0,0,0-.22.41v1.19a.42.42,0,0,0,.22.41l1.73.59a12.2,12.2,0,0,0,.28,1.37l-1.39,1.21a.43.43,0,0,0,0,.46l.45,1.1a.43.43,0,0,0,.37.3l1.85-.12a11.65,11.65,0,0,0,.81,1.2l-.83,1.68A.42.42,0,0,0,1564.27,828.56Zm3.38-2.65a9.4,9.4,0,1,1,13.29,0A9.4,9.4,0,0,1,1567.65,825.91Z"/><path class="cls-8" d="M1541.51,1079.53l-.32-5.15a1.48,1.48,0,0,1,1-1.27l3.87-1.59a1.49,1.49,0,0,1,1.63.17l4.17,4.78a41.83,41.83,0,0,1,4.89-.94l2.05-6a1.47,1.47,0,0,1,1.45-.77h4.17a1.48,1.48,0,0,1,1.46.78l2.06,6.08a40.63,40.63,0,0,1,5.1,1.06l4.27-4.84a1.48,1.48,0,0,1,1.64-.17l3.86,1.62a1.48,1.48,0,0,1,1,1.28l-.34,5Z"/><path class="cls-3" d="M1178.21,946.05l3.52,3.53a1.77,1.77,0,0,0,1.88.57l7.14-3.52a50.21,50.21,0,0,0,4.65,3.08l-.55,8a1.77,1.77,0,0,0,1.24,1.54l4.6,1.92a1.77,1.77,0,0,0,2-.19l5.35-6.07a51.6,51.6,0,0,0,5.69,1.11l2.62,7.69a1.77,1.77,0,0,0,1.72.94h5a1.76,1.76,0,0,0,1.72-.93l2.64-7.76a50.19,50.19,0,0,0,5.23-1.06l5.4,6.21a1.78,1.78,0,0,0,2,.2l4.61-1.9a1.77,1.77,0,0,0,1.25-1.51l-.51-8.24a47.66,47.66,0,0,0,4.69-3.15l7.43,3.66a1.76,1.76,0,0,0,1.88-.56l3.52-3.53a1.77,1.77,0,0,0,.57-1.88l-3.66-7.43a51,51,0,0,0,3-4.37l8.23.56a1.75,1.75,0,0,0,1.53-1.23l1.92-4.6a1.76,1.76,0,0,0-.19-2L1268,919.7a48,48,0,0,0,1.15-5.57l7.76-2.64a1.75,1.75,0,0,0,.93-1.72v-5a1.78,1.78,0,0,0-.93-1.74l-7.71-2.61a48.75,48.75,0,0,0-1-5.34l6.09-5.31a1.75,1.75,0,0,0,.2-2l-1.89-4.61a1.75,1.75,0,0,0-1.52-1.24l-8,.49a46.1,46.1,0,0,0-3.25-5l3.51-7.13a1.78,1.78,0,0,0-.56-1.89l-3.52-3.52a1.79,1.79,0,0,0-1.89-.56l-7,3.48a49.08,49.08,0,0,0-4.72-3.23l.53-7.79a1.77,1.77,0,0,0-1.23-1.52l-4.61-1.94a1.76,1.76,0,0,0-2,.21l-5.1,5.78a48.57,48.57,0,0,0-6.09-1.26l-2.46-7.26a1.77,1.77,0,0,0-1.74-.93h-5a1.75,1.75,0,0,0-1.73.92l-2.45,7.21a50.25,50.25,0,0,0-5.84,1.12l-5-5.71a1.78,1.78,0,0,0-1.95-.21l-4.62,1.89a1.77,1.77,0,0,0-1.25,1.52l.47,7.52a47.76,47.76,0,0,0-5.32,3.54l-6.75-3.33a1.79,1.79,0,0,0-1.89.56l-3.53,3.53a1.76,1.76,0,0,0-.56,1.88l3.32,6.76a49.28,49.28,0,0,0-3.35,5l-7.51-.52a1.78,1.78,0,0,0-1.53,1.24l-1.93,4.59a1.79,1.79,0,0,0,.2,2l5.67,5a49.32,49.32,0,0,0-1.21,6.21L1164.1,903a1.76,1.76,0,0,0-.92,1.73v5a1.77,1.77,0,0,0,.94,1.73l7.26,2.47a51.74,51.74,0,0,0,1.17,5.74l-5.82,5.07a1.78,1.78,0,0,0-.21,1.94l1.88,4.62a1.81,1.81,0,0,0,1.53,1.25l7.77-.49a47.93,47.93,0,0,0,3.42,5l-3.48,7A1.77,1.77,0,0,0,1178.21,946.05Zm14.17-11.13a39.46,39.46,0,1,1,55.8,0A39.46,39.46,0,0,1,1192.39,934.93Z"/><polygon class="cls-14" points="1438.95 966.38 1474.46 986.88 1509.98 966.38 1509.98 925.37 1474.46 904.86 1438.95 925.37 1438.95 966.38"/><path class="cls-5" d="M1180.92,721.07l20.69,20.71c3.47,3.45,8,4.82,11,3.34l41.93-20.64a295.41,295.41,0,0,0,27.28,18.07l-3.24,46.74c-.24,3.42,2.77,7.16,7.26,9l27,11.29c4.47,1.87,9.22,1.41,11.48-1.12l31.43-35.63a302.9,302.9,0,0,0,33.41,6.53l15.4,45.17c1.1,3.22,5.3,5.48,10.12,5.51H1444c4.84,0,9.07-2.29,10.11-5.47L1469.65,779a294.64,294.64,0,0,0,30.69-6.24l31.73,36.48c2.19,2.5,7,3,11.48,1.18l27.06-11.15c4.52-1.84,7.5-5.49,7.34-8.83l-3-48.4a280,280,0,0,0,27.54-18.5l43.63,21.52c3,1.52,7.61.1,11-3.3l20.69-20.71c3.41-3.44,4.84-8,3.33-11l-21.48-43.64A300.54,300.54,0,0,0,1677,640.76l48.33,3.31c3.34.26,7.14-2.75,9-7.23l11.3-27c1.91-4.46,1.42-9.29-1.1-11.49l-36.22-32a281.21,281.21,0,0,0,6.74-32.74l45.57-15.5c3.22-1.07,5.47-5.3,5.47-10.11V478.67c0-4.84-2.26-9.08-5.47-10.19l-45.25-15.33a286,286,0,0,0-5.88-31.35l35.79-31.17c2.59-2.22,3-7,1.2-11.48l-11.08-27.1c-1.84-4.49-5.53-7.53-8.94-7.29l-46.88,2.87a272.22,272.22,0,0,0-19.09-29.11l20.62-41.89c1.5-3,.13-7.69-3.31-11.09l-20.66-20.69c-3.46-3.4-8.08-4.79-11.09-3.31L1604.73,262A287.57,287.57,0,0,0,1577,243l3.13-45.72c.24-3.39-2.79-7.05-7.21-8.94l-27-11.36c-4.49-1.84-9.27-1.38-11.48,1.2l-30,33.92a285,285,0,0,0-35.79-7.4l-14.46-42.65c-1.08-3.24-5.32-5.47-10.21-5.47l-29.23,0c-4.84,0-9.09,2.19-10.16,5.4l-14.39,42.32a294.72,294.72,0,0,0-34.31,6.57l-29.2-33.53c-2.22-2.54-7-3-11.44-1.21l-27.11,11.12c-4.49,1.83-7.53,5.53-7.34,8.91l2.77,44.13a279.55,279.55,0,0,0-31.24,20.77l-39.62-19.58c-3-1.49-7.67-.09-11.08,3.31l-20.72,20.72c-3.44,3.41-4.76,8-3.27,11.06l19.52,39.67a291,291,0,0,0-19.69,29.3l-44.08-3c-3.37-.21-7.11,2.82-9,7.27l-11.31,27c-1.85,4.51-1.39,9.27,1.16,11.55l33.29,29.37a291.26,291.26,0,0,0-7.13,36.45l-42.33,14.37c-3.21,1.08-5.43,5.31-5.42,10.14l0,29.26c0,4.85,2.27,9.08,5.51,10.15l42.6,14.52a303.56,303.56,0,0,0,6.86,33.68l-34.16,29.76c-2.48,2.2-3,7-1.2,11.42l11.06,27.13c1.88,4.44,5.57,7.53,9,7.33l45.63-2.87a282.65,282.65,0,0,0,20.09,29.6L1177.57,710C1176.07,713.07,1177.48,717.63,1180.92,721.07Zm83.23-65.33c-90.5-90.5-90.56-237.18-.07-327.68s237.27-90.5,327.74,0,90.46,237.18,0,327.68S1354.62,746.23,1264.14,655.74Z"/></g><g class="cls-2"><g class="cls-15"><path class="cls-16" d="M775.72,1079.53c-7.26-77.1-26.31-153-57.52-224.16L481.81,959.7a467.66,467.66,0,0,1,34,119.83h-2.23a469,469,0,0,0-34.46-120l-.48-1.09L718.34,852.7l1.09-.49.48,1.1c31.16,70.7,50.6,147.21,57.84,226.22Z"/><path class="cls-16" d="M902.79,1079.53a863.72,863.72,0,0,0-31.48-169.46L450.87,1034a422.92,422.92,0,0,1,10.55,45.57H459a420.52,420.52,0,0,0-10.75-46l-.33-1.14L871.78,907.44l1.14-.34.34,1.14a865.89,865.89,0,0,1,31.92,171.28Z"/><path class="cls-16" d="M671.38,1079.53l236.32-28c.53,4.41,1,8.83,1.47,13.25l-143,14.73Z"/><path class="cls-16" d="M557.81,1079.53C525,881.53,372.58,701,179,646.81l.17-.6C373,700.43,525.62,881.26,558.44,1079.53Z"/><path class="cls-16" d="M473.65,1062.27q.74,3.49,1.42,7l1.89-.37q-.68-3.51-1.43-7Z"/><path class="cls-16" d="M470.74,1049.47c.56,2.31,1.1,4.63,1.63,6.95l1.88-.42c-.53-2.33-1.07-4.65-1.63-7Z"/><path class="cls-16" d="M467.46,1036.76q.94,3.44,1.83,6.9l1.87-.48c-.59-2.32-1.21-4.62-1.84-6.93Z"/><path class="cls-16" d="M463.81,1024.17q1,3.4,2,6.84l1.86-.54q-1-3.45-2-6.87Z"/><path class="cls-16" d="M459.79,1011.68q1.14,3.38,2.23,6.78l1.84-.59c-.73-2.28-1.48-4.55-2.24-6.82Z"/><path class="cls-16" d="M455.4,999.31q1.24,3.35,2.43,6.71l1.82-.64q-1.2-3.38-2.44-6.74Z"/><path class="cls-16" d="M450.66,987.08c.89,2.2,1.77,4.41,2.63,6.63l1.8-.7q-1.3-3.34-2.64-6.66Z"/><path class="cls-16" d="M445.55,975q1.43,3.27,2.82,6.56l1.78-.75c-.93-2.2-1.87-4.4-2.84-6.59Z"/><path class="cls-16" d="M440.09,963.07c1,2.15,2,4.31,3,6.47l1.76-.8q-1.49-3.26-3-6.49Z"/><path class="cls-16" d="M434.28,951.3c1.09,2.11,2.15,4.24,3.2,6.38l1.73-.85q-1.58-3.21-3.21-6.4Z"/><path class="cls-16" d="M432.77,937.15q1.74,3.17,3.43,6.36l1.71-.9q-1.7-3.2-3.45-6.38Z"/><path class="cls-16" d="M426.27,925.73c1.22,2.07,2.43,4.15,3.61,6.25l1.68-1c-1.19-2.1-2.41-4.19-3.63-6.27Z"/><path class="cls-16" d="M419.44,914.49q1.92,3.05,3.79,6.14l1.65-1c-1.26-2.07-2.52-4.13-3.8-6.17Z"/><path class="cls-16" d="M412.28,903.46c1.34,2,2.66,4,4,6l1.62-1q-2-3-4-6.06Z"/><path class="cls-16" d="M404.8,892.64q2.1,2.93,4.14,5.91l1.59-1.09q-2-3-4.16-5.94Z"/><path class="cls-16" d="M397,882c1.45,1.93,2.89,3.85,4.32,5.79l1.56-1.14c-1.43-2-2.88-3.88-4.34-5.81Z"/><path class="cls-16" d="M388.92,871.67q2.27,2.81,4.48,5.66c.51-.39,1-.79,1.52-1.19q-2.23-2.86-4.5-5.69Z"/><path class="cls-16" d="M380.52,861.54q2.36,2.74,4.65,5.53l1.49-1.23c-1.53-1.87-3.1-3.71-4.67-5.55Z"/><path class="cls-16" d="M371.84,851.67c1.61,1.79,3.22,3.57,4.8,5.39l1.45-1.27q-2.39-2.73-4.82-5.41C372.79,850.8,372.31,851.23,371.84,851.67Z"/><path class="cls-16" d="M362.87,842q2.49,2.6,5,5.24l1.42-1.31c-1.64-1.78-3.31-3.52-5-5.27Z"/><path class="cls-16" d="M353.62,832.7c1.72,1.68,3.43,3.38,5.11,5.1l1.37-1.35c-1.69-1.72-3.4-3.44-5.13-5.12Z"/><path class="cls-16" d="M344.11,823.62q2.64,2.46,5.25,4.95l1.34-1.39c-1.75-1.67-3.51-3.32-5.27-5Z"/><path class="cls-16" d="M334.33,814.81q2.72,2.38,5.4,4.8c.43-.48.87-.95,1.29-1.43q-2.69-2.44-5.42-4.82Z"/><path class="cls-16" d="M324.3,806.3c1.86,1.53,3.71,3.08,5.54,4.64l1.25-1.47c-1.84-1.57-3.7-3.12-5.56-4.66Z"/><path class="cls-16" d="M314,798.09q2.86,2.21,5.67,4.47l1.21-1.51q-2.82-2.27-5.7-4.49Z"/><path class="cls-16" d="M303.53,790.17c1.95,1.41,3.87,2.86,5.79,4.3l1.16-1.54c-1.93-1.45-3.86-2.9-5.82-4.32Z"/><path class="cls-16" d="M292.8,782.57q3,2,5.91,4.13l1.12-1.57q-3-2.11-5.94-4.15Z"/><path class="cls-16" d="M281.85,775.29c2,1.31,4,2.62,6,4l1.07-1.6q-3-2-6.06-4Z"/><path class="cls-16" d="M270.69,768.32q3.09,1.87,6.15,3.78c.34-.55.68-1.09,1-1.64q-3.08-1.92-6.18-3.8Z"/><path class="cls-16" d="M259.34,761.68q3.14,1.78,6.26,3.61l1-1.66c-2.1-1.21-4.19-2.43-6.29-3.62C260,760.57,259.65,761.12,259.34,761.68Z"/><path class="cls-16" d="M247.79,755.38q3.19,1.68,6.35,3.42l.93-1.69q-3.18-1.73-6.39-3.43C248.4,754.24,248.09,754.81,247.79,755.38Z"/><path class="cls-16" d="M236.07,749.42q3.24,1.58,6.45,3.23l.88-1.72q-3.21-1.66-6.48-3.24Z"/><path class="cls-16" d="M224.18,743.8c2.19,1,4.38,2,6.54,3l.83-1.74q-3.27-1.56-6.57-3.05C224.72,742.63,224.45,743.21,224.18,743.8Z"/><path class="cls-16" d="M212.13,738.53c2.21.94,4.43,1.88,6.63,2.85q.38-.89.78-1.77c-2.21-1-4.43-1.92-6.66-2.86C212.63,737.34,212.39,737.94,212.13,738.53Z"/><path class="cls-16" d="M199.93,733.61q3.37,1.31,6.72,2.66c.24-.6.49-1.19.73-1.79-2.24-.91-4.5-1.79-6.75-2.67Z"/><path class="cls-16" d="M187.59,729c2.28.79,4.53,1.62,6.79,2.46.23-.6.46-1.2.67-1.81-2.27-.85-4.54-1.68-6.82-2.47C188,727.84,187.81,728.44,187.59,729Z"/><path class="cls-16" d="M175.13,724.85q3.44,1.1,6.86,2.26c.21-.61.41-1.22.62-1.83-2.29-.78-4.59-1.53-6.89-2.27C175.52,723.62,175.33,724.24,175.13,724.85Z"/><path class="cls-16" d="M162.55,721q3.47,1,6.92,2.06c.19-.62.37-1.23.57-1.85-2.31-.71-4.62-1.4-6.95-2.07C162.91,719.78,162.73,720.4,162.55,721Z"/><path class="cls-16" d="M149.87,717.55c2.33.59,4.65,1.21,7,1.85.16-.62.34-1.24.51-1.86-2.33-.65-4.66-1.26-7-1.86C150.18,716.31,150,716.93,149.87,717.55Z"/><path class="cls-16" d="M137.08,714.46q3.52.79,7,1.65l.46-1.88q-3.52-.87-7.06-1.66C137.36,713.2,137.22,713.83,137.08,714.46Z"/><path class="cls-16" d="M124.22,711.74c2.36.47,4.72.94,7.07,1.45.13-.63.27-1.26.4-1.89-2.36-.51-4.73-1-7.1-1.45C124.46,710.47,124.34,711.11,124.22,711.74Z"/><path class="cls-16" d="M111.27,709.39q3.57.59,7.12,1.24l.34-1.9c-2.38-.44-4.76-.85-7.15-1.25C111.48,708.13,111.37,708.76,111.27,709.39Z"/><path class="cls-16" d="M98.26,707.43c2.38.33,4.77.67,7.15,1,.09-.63.19-1.27.29-1.91-2.39-.37-4.78-.71-7.18-1C98.44,706.15,98.35,706.79,98.26,707.43Z"/><path class="cls-16" d="M85.21,705.84c2.4.25,4.79.53,7.18.82.08-.64.15-1.28.24-1.92-2.4-.3-4.8-.57-7.21-.83C85.35,704.56,85.28,705.2,85.21,705.84Z"/><path class="cls-16" d="M514.56,1079.53c-.79-5.06-1.64-10.1-2.59-15.13l1.89-.36c1,5.15,1.84,10.31,2.65,15.49Z"/><path class="cls-16" d="M496.51,1004.34q7.3,22.33,12.42,45.28l1.88-.42q-5.13-23-12.47-45.47Z"/><path class="cls-16" d="M473.48,946.76q10.1,21.2,18.12,43.32l1.81-.65q-8-22.17-18.19-43.49Z"/><path class="cls-16" d="M443.26,892.6q12.74,19.73,23.51,40.63l1.71-.88q-10.81-21-23.61-40.8Z"/><path class="cls-16" d="M406.36,842.76q15.15,17.94,28.53,37.29l1.58-1.1q-13.4-19.39-28.63-37.43Z"/><path class="cls-16" d="M363.37,798.05q17.33,15.84,33.06,33.33l1.43-1.29q-15.77-17.52-33.19-33.46Z"/><path class="cls-16" d="M315,759.22q19.22,13.49,37.06,28.82l1.26-1.47q-17.89-15.35-37.21-28.93C315.74,758.17,315.38,758.69,315,759.22Z"/><path class="cls-16" d="M262.08,726.91q20.78,10.94,40.45,23.83c.36-.53.7-1.07,1.06-1.61Q283.87,736.19,263,725.2C262.68,725.77,262.38,726.34,262.08,726.91Z"/><g class="cls-17"><path class="cls-18" d="M319.06,1079.53a354.25,354.25,0,0,0-34.16-79.15c-39.48-68.11-111.43-109.7-185.28-129.51Q49.4,857.77.29,867.19V659.83a497.75,497.75,0,0,1,140.38,10.71C346.61,716,494.31,883,525.09,1079.53Z"/><path class="cls-18" d="M319.06,1079.53a354.25,354.25,0,0,0-34.16-79.15c-39.48-68.11-111.43-109.7-185.28-129.51Q49.4,857.77.29,867.19V659.83a497.75,497.75,0,0,1,140.38,10.71C346.61,716,494.31,883,525.09,1079.53Z"/><path class="cls-18" d="M319.06,1079.53a354.25,354.25,0,0,0-34.16-79.15c-39.48-68.11-111.43-109.7-185.28-129.51Q49.4,857.77.29,867.19V659.83a497.75,497.75,0,0,1,140.38,10.71C346.61,716,494.31,883,525.09,1079.53Z"/><path class="cls-19" d="M319.06,1079.53a354.25,354.25,0,0,0-34.16-79.15c-39.48-68.11-111.43-109.7-185.28-129.51Q49.4,857.77.29,867.19V659.83a497.75,497.75,0,0,1,140.38,10.71C346.61,716,494.31,883,525.09,1079.53Z"/><path class="cls-20" d="M525.09,1079.53C494.31,883,346.61,716,140.66,670.53A497.75,497.75,0,0,0,.29,659.83V525.06a632.72,632.72,0,0,1,169.38,14.15C438.5,598.59,629.23,821,660.91,1079.53Z"/><path class="cls-21" d="M660.91,1079.53C629.23,821,438.5,598.59,169.67,539.22A632.66,632.66,0,0,0,.29,525.06V424.21a733.74,733.74,0,0,1,191.1,16.67c315.9,69.77,538.77,333.69,570.89,638.64Z"/><path class="cls-21" d="M660.91,1079.53C629.23,821,438.5,598.59,169.67,539.22A632.66,632.66,0,0,0,.29,525.06V424.21a733.74,733.74,0,0,1,191.1,16.67c315.9,69.77,538.77,333.69,570.89,638.64Z"/></g></g><path class="cls-22" d="M521.94,1079.53C491.77,881.59,343.24,712.74,136.31,667a497.56,497.56,0,0,0-136-11v-.6a498.43,498.43,0,0,1,136.13,11.09A496.24,496.24,0,0,1,317.74,746.8,497.68,497.68,0,0,1,449.65,885.52a497.72,497.72,0,0,1,70.26,178.06c1,5.31,1.84,10.63,2.65,16Z"/><path class="cls-22" d="M658.09,1079.53C627,819.43,435.29,594.93,165.4,535.33A632.48,632.48,0,0,0,.29,521v-.62a633.56,633.56,0,0,1,165.22,14.48,630.25,630.25,0,0,1,230.31,101.9,632.11,632.11,0,0,1,167.53,176.2,632,632,0,0,1,89.24,226.16q3.73,20.17,6.13,40.42Z"/></g><g class="cls-2"><g class="cls-15"><path class="cls-16" d="M1920,857.58c-44.23-7.64-86.65-24.39-122.95-50.32l9.47-13.24c33.56,24,72.65,39.67,113.48,47.13Z"/><path class="cls-16" d="M1920,830.93c-1.62-.34-3.25-.68-4.87-1-59.41-13.32-112.75-44-150.3-86.38l-120,105.5c69.27,78.4,170.12,127.89,275.19,142.38v1.78q-20-2.72-39.87-7.16c-93.75-21-177.89-69.52-236.91-136.58l-.49-.55,121.68-107,.55-.49.49.56c39.48,44.85,95.2,74.87,154.55,87.24Z"/><path class="cls-16" d="M1713.72,513.69l32.17,5.15-.12.73c-15.27,95.66,38.28,201,124.55,245.06l.66.34-72.91,143-36.62,71.84-.66-.33A474.74,474.74,0,0,1,1507.65,481.4l.12-.73ZM1869,765.61c-86.22-44.41-139.74-149.71-124.8-245.55L1509,482.36a473.26,473.26,0,0,0,251.82,495.47Z"/><path class="cls-16" d="M1829.82,328.71l-.62.4c-78.17,50.67-126.67,143.56-123.54,236.65S1763.59,748.23,1845,793.45l.64.36-66.9,120.65-.64-.36c-59.95-33.28-111.54-83.38-149.18-144.88s-58.8-130.23-61.17-198.76S1581.9,431.92,1615.27,368s81.42-117.42,139-154.71l.62-.4Zm13.86,465.67c-39.66-22.18-73.79-55.41-98.74-96.16-25.08-41-39.17-86.76-40.75-132.41s9.41-92.3,31.64-134.88c22.11-42.35,53.9-77.83,92-102.66l-73.36-113.34c-117.19,76.27-189.86,215.72-185.17,355.47s86.83,273.93,208.95,342Z"/><path class="cls-16" d="M1860.4,749.58l-2.92-1.79q-61.66,99.15-123.31,198.31,3,1.84,6,3.64Z"/><path class="cls-16" d="M1675.31,681.57C1716.7,781,1814.06,854.41,1920,875.66v.39c-106.1-21.26-203.6-94.73-245-194.34-55.73-134.44-5.77-307.58,113-391.69l.22.31C1669.55,374.35,1619.65,547.29,1675.31,681.57Z"/><path class="cls-16" d="M1756.14,722.53q-1.33-1.76-2.63-3.54l-1,.7c.87,1.19,1.74,2.38,2.64,3.56Z"/><path class="cls-16" d="M1760.69,728.41c-.92-1.15-1.83-2.31-2.72-3.47l-.95.73c.9,1.17,1.82,2.33,2.73,3.49Z"/><path class="cls-16" d="M1765.4,734.15c-.95-1.13-1.88-2.26-2.82-3.4l-.93.75q1.4,1.72,2.83,3.41Z"/><path class="cls-16" d="M1770.26,739.77q-1.46-1.66-2.91-3.32l-.91.78q1.44,1.68,2.92,3.34Z"/><path class="cls-16" d="M1775.27,745.25q-1.51-1.61-3-3.24l-.88.8c1,1.1,2,2.18,3,3.26Z"/><path class="cls-16" d="M1780.42,750.6q-1.55-1.57-3.08-3.16l-.86.83c1,1.06,2,2.12,3.09,3.17Z"/><path class="cls-16" d="M1785.72,755.81c-1.06-1-2.11-2-3.16-3.08l-.84.85q1.58,1.55,3.17,3.09Z"/><path class="cls-16" d="M1791.16,760.87c-1.09-1-2.18-2-3.24-3l-.82.87c1.08,1,2.17,2,3.26,3Z"/><path class="cls-16" d="M1796.73,765.79q-1.67-1.44-3.33-2.9l-.79.89q1.66,1.47,3.34,2.92Z"/><path class="cls-16" d="M1802.42,770.55q-1.71-1.39-3.4-2.81l-.77.91q1.7,1.42,3.41,2.82C1801.92,771.16,1802.17,770.86,1802.42,770.55Z"/><path class="cls-16" d="M1808.25,775.16q-1.75-1.35-3.48-2.72l-.74.93c1.16.92,2.32,1.82,3.49,2.73Z"/><path class="cls-16" d="M1814.2,779.61c-1.19-.86-2.37-1.74-3.54-2.62l-.72,1c1.18.89,2.37,1.77,3.56,2.63Z"/><path class="cls-16" d="M1820.27,783.89l-3.62-2.53-.69,1q1.81,1.28,3.63,2.54Z"/><path class="cls-16" d="M1826.45,788c-1.24-.8-2.46-1.61-3.69-2.43l-.66,1c1.23.82,2.46,1.64,3.7,2.44Z"/><path class="cls-16" d="M1832.73,792q-1.88-1.15-3.75-2.33l-.64,1q1.87,1.19,3.76,2.34Z"/><path class="cls-16" d="M1839.12,795.75q-1.91-1.09-3.81-2.23l-.61,1q1.9,1.13,3.82,2.24C1838.72,796.44,1838.93,796.1,1839.12,795.75Z"/><path class="cls-16" d="M1845.61,799.36q-1.94-1-3.87-2.12l-.58,1q1.93,1.09,3.88,2.13Z"/><path class="cls-16" d="M1852.2,802.8q-2-1-3.92-2l-.56,1.06c1.31.69,2.62,1.36,3.94,2Z"/><path class="cls-16" d="M1858.88,806.05q-2-.94-4-1.91l-.53,1.07q2,1,4,1.92Z"/><path class="cls-16" d="M1865.64,809.13c-1.35-.6-2.69-1.19-4-1.81-.16.36-.34.72-.5,1.08,1.34.62,2.69,1.22,4,1.82Z"/><path class="cls-16" d="M1872.48,812c-1.36-.56-2.72-1.11-4.07-1.7l-.47,1.1q2,.87,4.09,1.7Z"/><path class="cls-16" d="M1879.4,814.72c-1.37-.52-2.75-1-4.11-1.58l-.44,1.11c1.37.54,2.75,1.07,4.13,1.59Z"/><path class="cls-16" d="M1886.39,817.24q-2.08-.72-4.16-1.47l-.41,1.12q2.08.76,4.18,1.48Z"/><path class="cls-16" d="M1893.44,819.57q-2.1-.67-4.2-1.36c-.12.38-.26.75-.38,1.13q2.1.7,4.22,1.37Z"/><path class="cls-16" d="M1900.56,821.71q-2.12-.61-4.24-1.25l-.35,1.14,4.25,1.25Z"/><path class="cls-16" d="M1907.72,823.66c-1.42-.37-2.84-.75-4.26-1.13l-.32,1.15c1.42.4,2.85.77,4.28,1.14C1907.53,824.43,1907.62,824,1907.72,823.66Z"/><path class="cls-16" d="M1914.94,825.41q-2.15-.49-4.29-1l-.28,1.16c1.44.35,2.87.69,4.31,1C1914.77,826.19,1914.85,825.8,1914.94,825.41Z"/><path class="cls-16" d="M1759.91,762.46q-10-10.52-19-22l-.94.73q9,11.49,19,22.07Z"/><path class="cls-16" d="M1788.07,788.49q-11.27-9.16-21.62-19.37l-.84.85q10.38,10.24,21.71,19.45Z"/><path class="cls-16" d="M1819.33,810.71q-12.35-7.65-23.93-16.45l-.72.95q11.6,8.83,24,16.51Z"/><path class="cls-16" d="M1853.19,828.74q-13.23-6-25.84-13.24l-.59,1q12.64,7.27,25.94,13.3Z"/><path class="cls-16" d="M1889.07,842.28q-13.89-4.25-27.32-9.83l-.46,1.1q13.47,5.59,27.43,9.87Z"/><path class="cls-16" d="M1920,851.16q-11.23-2.15-22.27-5.14l.31-1.15q10.88,3,22,5.08Z"/><path class="cls-16" d="M1920,890a339.89,339.89,0,0,1-97.55-32.22l3-5.92A333.27,333.27,0,0,0,1920,883.2Z"/><g class="cls-17"><path class="cls-23" d="M1920,385.42a138.6,138.6,0,0,0-42.72,20c-39.49,25.2-70,68.85-80.09,114.58-10.67,48.33.06,95.69,24.39,137.66,21.52,37.13,58.65,61.51,98.42,75.16V860.6c-4.13-.74-8.26-1.54-12.4-2.45-166-36.65-270.77-200.89-234.12-366.85,27.63-125.11,127.79-215.46,246.52-236.66Z"/><path class="cls-23" d="M1920,385.42a138.6,138.6,0,0,0-42.72,20c-39.49,25.2-70,68.85-80.09,114.58-10.67,48.33.06,95.69,24.39,137.66,21.52,37.13,58.65,61.51,98.42,75.16V860.6c-4.13-.74-8.26-1.54-12.4-2.45-166-36.65-270.77-200.89-234.12-366.85,27.63-125.11,127.79-215.46,246.52-236.66Z"/><path class="cls-23" d="M1920,385.42a138.6,138.6,0,0,0-42.72,20c-39.49,25.2-70,68.85-80.09,114.58-10.67,48.33.06,95.69,24.39,137.66,21.52,37.13,58.65,61.51,98.42,75.16V860.6c-4.13-.74-8.26-1.54-12.4-2.45-166-36.65-270.77-200.89-234.12-366.85,27.63-125.11,127.79-215.46,246.52-236.66Z"/><path class="cls-24" d="M1920,385.42a138.6,138.6,0,0,0-42.72,20c-39.49,25.2-70,68.85-80.09,114.58-10.67,48.33.06,95.69,24.39,137.66,21.52,37.13,58.65,61.51,98.42,75.16V860.6c-4.13-.74-8.26-1.54-12.4-2.45-166-36.65-270.77-200.89-234.12-366.85,27.63-125.11,127.79-215.46,246.52-236.66Z"/><path class="cls-20" d="M1920,254.64c-118.73,21.2-218.89,111.55-246.52,236.66-36.65,166,68.17,330.19,234.12,366.85,4.13.91,8.27,1.71,12.4,2.45v84.23q-15.14-2.13-30.33-5.47c-210.81-46.56-344-255.19-297.4-466,36.22-164,170.58-281,327.73-302.94Z"/><path class="cls-25" d="M1920,170.42c-157.15,21.92-291.51,138.92-327.73,302.94-46.56,210.81,86.59,419.44,297.4,466q15.18,3.35,30.33,5.47v62.8q-21.83-2.64-43.76-7.45c-244.39-54-398.75-295.85-344.78-540.24,42.66-193.14,202.68-330,388.54-352.31Z"/><path class="cls-25" d="M1920,170.42c-157.15,21.92-291.51,138.92-327.73,302.94-46.56,210.81,86.59,419.44,297.4,466q15.18,3.35,30.33,5.47v62.8q-21.83-2.64-43.76-7.45c-244.39-54-398.75-295.85-344.78-540.24,42.66-193.14,202.68-330,388.54-352.31Z"/></g></g><path class="cls-22" d="M1792.38,808.17A309,309,0,0,1,1915.1,252.49c1.63-.3,3.27-.57,4.9-.84V252c-120.26,20.36-222.25,111.45-250.13,237.69-36.68,166.1,68.61,331.08,234.71,367.77q7.71,1.7,15.42,3v.31q-7.75-1.31-15.49-3A306.9,306.9,0,0,1,1792.38,808.17Z"/><path class="cls-22" d="M1920,167.67c-158.74,21-295.11,138.88-331.59,304.07-46.6,211,87.16,420.61,298.18,467.21,11.15,2.46,22.29,4.39,33.41,5.86v.32q-16.77-2.23-33.48-5.89A392.32,392.32,0,0,1,1900,170.44q10-1.85,20-3.16Z"/></g></g></g></svg>