<svg xmlns="http://www.w3.org/2000/svg" xmlns:xlink="http://www.w3.org/1999/xlink" viewBox="0 0 929.66 1080"><defs><style>.cls-1{isolation:isolate;}.cls-2{opacity:0.33;}.cls-3{fill:#f1f2f2;}.cls-16,.cls-17,.cls-19,.cls-3,.cls-4,.cls-5,.cls-7{mix-blend-mode:multiply;}.cls-11,.cls-4,.cls-5{fill:#e6e7e8;}.cls-5,.cls-7{opacity:0.29;}.cls-12,.cls-18,.cls-6{fill:#fff;}.cls-14,.cls-7{fill:#a7a9ac;}.cls-8{opacity:0.47;}.cls-9{opacity:0.56;}.cls-10{fill:#bcbec0;}.cls-12{mix-blend-mode:overlay;}.cls-13{opacity:0.77;}.cls-15{opacity:0.5;}.cls-16{fill:url(#Áåçûìÿííûé_ãðàäèåíò_32);}.cls-17{fill:url(#Áåçûìÿííûé_ãðàäèåíò_8);}.cls-18{opacity:0.48;}.cls-19{fill:url(#Áåçûìÿííûé_ãðàäèåíò_5);}.cls-20{fill:#939598;}</style><radialGradient id="Áåçûìÿííûé_ãðàäèåíò_32" cx="-804.83" cy="-821.33" r="440.79" gradientTransform="matrix(0.22, -0.98, -0.98, -0.22, 355.2, -405.42)" gradientUnits="userSpaceOnUse"><stop offset="0.48" stop-color="#fff"/><stop offset="0.52" stop-color="#f7f7f7"/><stop offset="0.59" stop-color="#e2e2e2"/><stop offset="0.68" stop-color="#bfbfbf"/><stop offset="0.77" stop-color="#8e8e8e"/><stop offset="0.88" stop-color="#505050"/><stop offset="0.99" stop-color="#050505"/><stop offset="1"/></radialGradient><radialGradient id="Áåçûìÿííûé_ãðàäèåíò_8" cx="-804.83" cy="-821.33" r="440.79" gradientTransform="matrix(0.22, -0.98, -0.98, -0.22, 355.2, -405.42)" gradientUnits="userSpaceOnUse"><stop offset="0.41" stop-color="#fff"/><stop offset="0.46" stop-color="#f7f7f7"/><stop offset="0.54" stop-color="#e2e2e2"/><stop offset="0.63" stop-color="#bfbfbf"/><stop offset="0.74" stop-color="#8e8e8e"/><stop offset="0.86" stop-color="#505050"/><stop offset="0.99" stop-color="#050505"/><stop offset="1"/></radialGradient><radialGradient id="Áåçûìÿííûé_ãðàäèåíò_5" cx="-804.84" cy="-821.34" r="453.16" gradientTransform="matrix(0.22, -0.98, -0.98, -0.22, 355.2, -405.42)" gradientUnits="userSpaceOnUse"><stop offset="0.36" stop-color="#fff"/><stop offset="0.4" stop-color="#fafafa"/><stop offset="0.44" stop-color="#ebebeb"/><stop offset="0.49" stop-color="#d2d2d2"/><stop offset="0.55" stop-color="#afafaf"/><stop offset="0.6" stop-color="#828282"/><stop offset="0.66" stop-color="#4b4b4b"/><stop offset="0.72" stop-color="#0b0b0b"/><stop offset="0.73"/><stop offset="0.76" stop-color="#323232"/><stop offset="0.81" stop-color="#6f6f6f"/><stop offset="0.86" stop-color="#a3a3a3"/><stop offset="0.9" stop-color="#cbcbcb"/><stop offset="0.94" stop-color="#e7e7e7"/><stop offset="0.97" stop-color="#f9f9f9"/><stop offset="1" stop-color="#fff"/></radialGradient></defs><title>Rityta 1</title><g class="cls-1"><g id="Lager_1" data-name="Lager 1"><g class="cls-2"><polygon class="cls-3" points="-66.17 1079.53 -66.17 909.93 151.24 784.41 368.64 909.93 368.64 1079.53 -66.17 1079.53"/><polygon class="cls-4" points="174.68 962.92 296.75 1033.4 418.81 962.92 418.81 821.97 296.75 751.5 174.68 821.97 174.68 962.92"/><polygon class="cls-5" points="425.56 1079.53 425.56 855.21 670.38 713.86 915.2 855.21 915.2 1079.53 425.56 1079.53"/><polygon class="cls-5" points="89.38 843.76 404.81 1025.87 720.25 843.76 720.25 479.52 404.81 297.41 89.38 479.52 89.38 843.76"/><polygon class="cls-4" points="120.09 1079.53 89.38 1061.8 89.38 999.06 143.71 967.7 198.04 999.06 198.04 1061.8 167.33 1079.53 120.09 1079.53"/><path class="cls-6" d="M-73.07,787.57l77.42,44.7v89.39l-77.42,44.7-77.42-44.7V832.26Zm0,174.91L1,919.72V834.2l-74.06-42.76-74.06,42.76v85.51Z"/><polygon class="cls-4" points="410.5 1079.53 410.5 1060.31 532.57 989.83 654.64 1060.31 654.64 1079.53 410.5 1079.53"/><polygon class="cls-5" points="685.67 1079.53 906.21 952.2 929.66 965.74 929.66 1079.53 685.67 1079.53"/><polygon class="cls-5" points="325.2 1079.53 325.2 717.86 640.64 535.74 929.66 702.6 929.66 1079.53 325.2 1079.53"/><polygon class="cls-5" points="-106.44 1079.53 -382.27 920.27 -382.27 556.04 -66.84 373.93 248.6 556.04 248.6 920.27 -27.24 1079.53 -106.44 1079.53"/><polygon class="cls-6" points="236.82 1079.53 236.82 1072.54 162.76 1029.78 88.7 1072.54 88.7 1079.53 85.34 1079.53 85.34 1070.6 162.76 1025.9 240.18 1070.6 240.18 1079.53 236.82 1079.53"/><polygon class="cls-4" points="650.75 1079.53 690.92 1056.34 731.09 1079.53 650.75 1079.53"/><polygon class="cls-5" points="869.87 1079.53 929.66 1045.01 929.66 1079.53 869.87 1079.53"/><polygon class="cls-7" points="543.61 1079.53 543.61 863.13 767.69 733.75 929.66 827.27 929.66 1079.53 543.61 1079.53"/><polygon class="cls-7" points="-224.08 679.7 0 809.08 224.08 679.7 224.08 420.95 0 291.58 -224.08 420.95 -224.08 679.7"/><polygon class="cls-4" points="373.01 752.44 411.6 774.72 450.2 752.44 450.2 707.87 411.6 685.59 373.01 707.87 373.01 752.44"/><g class="cls-8"><polygon class="cls-6" points="797.82 1079.53 791.14 1079.53 791.14 921.69 929.66 841.72 929.66 849.42 797.82 925.54 797.82 1079.53"/></g><polygon class="cls-5" points="711.13 1079.53 711.13 1032.44 929.66 906.27 929.66 1079.53 711.13 1079.53"/><polygon class="cls-5" points="-64.08 837.1 160 966.47 384.08 837.1 384.08 578.35 160 448.98 -64.08 578.35 -64.08 837.1"/><polygon class="cls-5" points="208.55 1079.53 208.55 917.49 432.63 788.11 656.71 917.49 656.71 1079.53 208.55 1079.53"/><polygon class="cls-5" points="-61.92 1079.53 -268.12 960.48 -268.12 701.73 -44.04 572.36 180.04 701.73 180.04 960.48 -26.16 1079.53 -61.92 1079.53"/><polygon class="cls-4" points="357.57 1079.53 305.13 1049.25 305.13 931.33 407.26 872.36 509.39 931.33 509.39 1049.25 456.96 1079.53 357.57 1079.53"/><polygon class="cls-4" points="525.91 674.2 717.1 784.59 908.29 674.2 908.29 453.43 717.1 343.05 525.91 453.43 525.91 674.2"/><polygon class="cls-4" points="390.12 728.14 490.05 785.84 589.99 728.14 589.99 612.74 490.05 555.04 390.12 612.74 390.12 728.14"/><polygon class="cls-4" points="546.29 843.22 583.19 864.52 620.1 843.22 620.1 800.6 583.19 779.29 546.29 800.6 546.29 843.22"/><g class="cls-8"><path class="cls-6" d="M504,574.86,720.61,699.94V950.11L504,1075.19,287.3,950.11V699.94Zm0,489.48L711.2,944.68V705.36L504,585.71,296.7,705.36V944.68Z"/></g><g class="cls-8"><polygon class="cls-6" points="182.6 950.89 182.6 1079.53 162.59 1079.53 162.59 939.35 623.67 673.15 929.66 849.8 929.66 872.9 623.67 696.24 182.6 950.89"/></g><g class="cls-9"><path class="cls-6" d="M233,306.42,449.66,431.5V681.67L233,806.75,16.35,681.67V431.5Zm0,489.48L440.26,676.24V436.92L233,317.27,25.75,436.92V676.24Z"/></g><path class="cls-6" d="M585.13,751.08l61.74,35.64V858l-61.74,35.64L523.4,858V786.72Zm0,139.48,59.06-34.1V788.27l-59.06-34.1-59.06,34.1v68.19Z"/><g class="cls-8"><polygon class="cls-6" points="300.74 1079.53 364.93 1042.47 364.93 897.37 239.27 824.83 113.62 897.37 113.62 1042.47 177.8 1079.53 166.41 1079.53 107.92 1045.76 107.92 894.08 239.27 818.25 370.63 894.08 370.63 1045.76 312.13 1079.53 300.74 1079.53"/></g><g class="cls-8"><polygon class="cls-6" points="701.1 1079.53 701.1 1040.37 575.45 967.83 449.79 1040.37 449.79 1079.53 444.09 1079.53 444.09 1037.08 575.45 961.25 706.8 1037.08 706.8 1079.53 701.1 1079.53"/></g><g class="cls-8"><polygon class="cls-6" points="18.7 1079.53 -95.59 1013.54 -209.88 1079.53 -221.28 1079.53 -95.59 1006.96 30.1 1079.53 18.7 1079.53"/></g><path class="cls-10" d="M573.93,828.56l.84.84a.42.42,0,0,0,.45.14l1.7-.84a11.89,11.89,0,0,0,1.11.73l-.13,1.9a.42.42,0,0,0,.29.37l1.09.46a.42.42,0,0,0,.47,0l1.28-1.45a12.62,12.62,0,0,0,1.36.27l.62,1.83a.42.42,0,0,0,.41.22h1.19a.42.42,0,0,0,.41-.22l.63-1.85a11.89,11.89,0,0,0,1.25-.25l1.29,1.48a.42.42,0,0,0,.47,0l1.1-.45a.42.42,0,0,0,.3-.36l-.12-2a11.46,11.46,0,0,0,1.12-.75l1.77.87a.42.42,0,0,0,.45-.13l.84-.84a.42.42,0,0,0,.13-.45l-.87-1.77a11.83,11.83,0,0,0,.7-1l2,.13a.42.42,0,0,0,.36-.29l.46-1.09a.42.42,0,0,0,0-.47l-1.47-1.3a11.66,11.66,0,0,0,.27-1.33l1.85-.63a.42.42,0,0,0,.22-.41v-1.19a.43.43,0,0,0-.22-.41l-1.84-.62a11.62,11.62,0,0,0-.24-1.27l1.45-1.27a.42.42,0,0,0,0-.47l-.45-1.1a.42.42,0,0,0-.36-.3l-1.9.12a11,11,0,0,0-.78-1.18l.84-1.7a.42.42,0,0,0-.13-.45l-.84-.84a.43.43,0,0,0-.45-.13l-1.68.83a11.7,11.7,0,0,0-1.12-.77l.13-1.85a.42.42,0,0,0-.29-.36l-1.1-.46a.42.42,0,0,0-.47,0l-1.22,1.38a11.56,11.56,0,0,0-1.45-.3l-.59-1.73a.42.42,0,0,0-.41-.22h-1.19a.41.41,0,0,0-.41.22l-.58,1.72a11.67,11.67,0,0,0-1.39.27l-1.19-1.36a.42.42,0,0,0-.46,0l-1.1.45a.42.42,0,0,0-.3.36l.11,1.79a11.45,11.45,0,0,0-1.27.84l-1.61-.79a.43.43,0,0,0-.45.13l-.84.84a.42.42,0,0,0-.13.45l.79,1.61a12.08,12.08,0,0,0-.8,1.19L572,813.2a.43.43,0,0,0-.36.3l-.46,1.09a.43.43,0,0,0,0,.47l1.35,1.19a11.81,11.81,0,0,0-.29,1.48l-1.72.58a.42.42,0,0,0-.22.41v1.19a.42.42,0,0,0,.22.41l1.73.59a12.2,12.2,0,0,0,.28,1.37l-1.39,1.21a.43.43,0,0,0,0,.46l.45,1.1a.43.43,0,0,0,.37.3l1.85-.12a11.65,11.65,0,0,0,.81,1.2l-.83,1.68A.42.42,0,0,0,573.93,828.56Zm3.38-2.65a9.4,9.4,0,1,1,13.29,0A9.4,9.4,0,0,1,577.31,825.91Z"/><path class="cls-6" d="M551.16,1079.53l-.32-5.15a1.48,1.48,0,0,1,1-1.27l3.87-1.59a1.49,1.49,0,0,1,1.63.17l4.17,4.78a41.83,41.83,0,0,1,4.89-.94l2.05-6a1.47,1.47,0,0,1,1.45-.77h4.17a1.48,1.48,0,0,1,1.46.78l2.06,6.08a40.63,40.63,0,0,1,5.1,1.06l4.27-4.84a1.48,1.48,0,0,1,1.64-.17l3.86,1.62a1.48,1.48,0,0,1,1,1.28l-.34,5Z"/><path class="cls-11" d="M187.87,946.05l3.52,3.53a1.77,1.77,0,0,0,1.88.57l7.14-3.52a50.21,50.21,0,0,0,4.65,3.08l-.55,8a1.77,1.77,0,0,0,1.24,1.54l4.6,1.92a1.77,1.77,0,0,0,2-.19l5.35-6.07a51.6,51.6,0,0,0,5.69,1.11l2.62,7.69a1.77,1.77,0,0,0,1.72.94h5a1.76,1.76,0,0,0,1.72-.93l2.64-7.76a50.19,50.19,0,0,0,5.23-1.06l5.4,6.21a1.78,1.78,0,0,0,2,.2l4.61-1.9a1.77,1.77,0,0,0,1.25-1.51l-.51-8.24a47.66,47.66,0,0,0,4.69-3.15l7.43,3.66a1.76,1.76,0,0,0,1.88-.56l3.52-3.53a1.77,1.77,0,0,0,.57-1.88l-3.66-7.43a51,51,0,0,0,3-4.37l8.23.56a1.75,1.75,0,0,0,1.53-1.23l1.92-4.6a1.76,1.76,0,0,0-.19-2l-6.17-5.46a48,48,0,0,0,1.15-5.57l7.76-2.64a1.75,1.75,0,0,0,.93-1.72v-5a1.78,1.78,0,0,0-.93-1.74l-7.71-2.61a48.75,48.75,0,0,0-1-5.34l6.09-5.31a1.75,1.75,0,0,0,.2-2l-1.89-4.61a1.75,1.75,0,0,0-1.52-1.24l-8,.49a46.1,46.1,0,0,0-3.25-5l3.51-7.13a1.78,1.78,0,0,0-.56-1.89L269,864.95a1.79,1.79,0,0,0-1.89-.56l-7,3.48a49.08,49.08,0,0,0-4.72-3.23l.53-7.79a1.77,1.77,0,0,0-1.23-1.52L250,853.39a1.76,1.76,0,0,0-2,.21l-5.1,5.78a48.57,48.57,0,0,0-6.09-1.26l-2.46-7.26a1.77,1.77,0,0,0-1.74-.93h-5a1.75,1.75,0,0,0-1.73.92l-2.45,7.21a50.25,50.25,0,0,0-5.84,1.12l-5-5.71a1.78,1.78,0,0,0-1.95-.21l-4.62,1.89a1.77,1.77,0,0,0-1.25,1.52l.47,7.52a47.76,47.76,0,0,0-5.32,3.54l-6.75-3.33a1.79,1.79,0,0,0-1.89.56l-3.53,3.53a1.76,1.76,0,0,0-.56,1.88l3.32,6.76a49.28,49.28,0,0,0-3.35,5l-7.51-.52a1.78,1.78,0,0,0-1.53,1.24l-1.93,4.59a1.79,1.79,0,0,0,.2,2l5.67,5A49.32,49.32,0,0,0,181,900.6L173.76,903a1.76,1.76,0,0,0-.92,1.73v5a1.77,1.77,0,0,0,.94,1.73L181,914a51.74,51.74,0,0,0,1.17,5.74l-5.82,5.07a1.78,1.78,0,0,0-.21,1.94l1.88,4.62a1.81,1.81,0,0,0,1.53,1.25l7.77-.49a47.93,47.93,0,0,0,3.42,5l-3.48,7A1.77,1.77,0,0,0,187.87,946.05ZM202,934.93a39.46,39.46,0,1,1,55.8,0A39.46,39.46,0,0,1,202,934.93Z"/><polygon class="cls-12" points="448.61 966.38 484.12 986.88 519.63 966.38 519.63 925.37 484.12 904.86 448.61 925.37 448.61 966.38"/><path class="cls-4" d="M190.58,721.07l20.69,20.71c3.47,3.45,8,4.82,11,3.34l41.93-20.64a295.41,295.41,0,0,0,27.28,18.07l-3.24,46.74c-.24,3.42,2.77,7.16,7.26,9l27,11.29c4.47,1.87,9.22,1.41,11.48-1.12l31.43-35.63a302.9,302.9,0,0,0,33.41,6.53l15.4,45.17c1.1,3.22,5.3,5.48,10.12,5.51h29.31c4.84,0,9.07-2.29,10.11-5.47L479.31,779A294.64,294.64,0,0,0,510,772.79l31.73,36.48c2.19,2.5,7,3,11.48,1.18l27.06-11.15c4.52-1.84,7.5-5.49,7.34-8.83l-3-48.4a280.05,280.05,0,0,0,27.54-18.5l43.63,21.52c3,1.52,7.61.1,11-3.3l20.69-20.71c3.41-3.44,4.84-8,3.33-11L669.34,666.4a300.54,300.54,0,0,0,17.35-25.64L735,644.07c3.34.26,7.14-2.75,9-7.23l11.3-27c1.91-4.46,1.42-9.29-1.1-11.49l-36.22-32a281.21,281.21,0,0,0,6.74-32.74l45.57-15.5c3.22-1.07,5.47-5.3,5.47-10.11V478.67c0-4.84-2.26-9.08-5.47-10.19L725,453.16a286,286,0,0,0-5.88-31.35l35.79-31.17c2.59-2.22,3-7,1.2-11.48l-11.08-27.1c-1.84-4.49-5.53-7.53-8.94-7.29l-46.88,2.87a272.22,272.22,0,0,0-19.09-29.11l20.62-41.89c1.5-3,.13-7.69-3.31-11.09l-20.66-20.69c-3.46-3.4-8.08-4.79-11.09-3.31L614.39,262a287.57,287.57,0,0,0-27.73-19l3.13-45.72c.24-3.39-2.79-7.05-7.21-8.94l-27-11.36c-4.49-1.84-9.27-1.38-11.48,1.2l-30,33.92a285,285,0,0,0-35.79-7.4l-14.46-42.65c-1.08-3.24-5.32-5.47-10.21-5.47l-29.23,0c-4.84,0-9.09,2.19-10.16,5.4l-14.39,42.32a294.72,294.72,0,0,0-34.31,6.57l-29.2-33.53c-2.22-2.54-7-3-11.44-1.21L297.78,187.3c-4.49,1.83-7.53,5.53-7.34,8.91l2.77,44.13A279.55,279.55,0,0,0,262,261.12l-39.62-19.58c-3-1.49-7.67-.09-11.08,3.31l-20.72,20.72c-3.44,3.41-4.76,8-3.27,11.06l19.52,39.67a291,291,0,0,0-19.69,29.3l-44.08-3c-3.37-.21-7.11,2.82-9,7.27l-11.31,27c-1.85,4.51-1.39,9.27,1.16,11.55l33.29,29.37a291.26,291.26,0,0,0-7.13,36.45l-42.33,14.37c-3.21,1.08-5.43,5.31-5.42,10.14l0,29.26c0,4.85,2.27,9.08,5.51,10.15l42.6,14.52a303.56,303.56,0,0,0,6.86,33.68L123.1,596.05c-2.48,2.2-3,7-1.2,11.42L133,634.59c1.88,4.44,5.57,7.53,9,7.33l45.63-2.87a282.65,282.65,0,0,0,20.09,29.6L187.22,710C185.73,713.07,187.13,717.63,190.58,721.07Zm83.23-65.33c-90.5-90.5-90.56-237.18-.07-327.68s237.27-90.5,327.74,0,90.46,237.18,0,327.68S364.28,746.23,273.8,655.74Z"/></g><g class="cls-2"><g class="cls-13"><path class="cls-14" d="M929.66,857.58c-44.23-7.64-86.65-24.39-122.95-50.32L816.18,794c33.56,24,72.65,39.67,113.48,47.13Z"/><path class="cls-14" d="M929.66,830.93c-1.62-.34-3.25-.68-4.87-1-59.41-13.32-112.75-44-150.3-86.38L654.47,849c69.27,78.4,170.12,127.89,275.19,142.38v1.78q-20-2.72-39.87-7.16C796,965,711.9,916.49,652.87,849.42l-.49-.55,121.68-107,.55-.49.49.56c39.48,44.85,95.2,74.87,154.55,87.24Z"/><path class="cls-14" d="M723.38,513.69l32.17,5.15-.12.73c-15.27,95.66,38.28,201,124.55,245.06l.66.34L807.73,908l-36.62,71.84-.66-.33A474.74,474.74,0,0,1,517.3,481.4l.12-.73ZM878.66,765.61C792.44,721.2,738.92,615.9,753.86,520.06l-235.22-37.7A473.26,473.26,0,0,0,770.47,977.84Z"/><path class="cls-14" d="M839.48,328.71l-.62.4c-78.17,50.67-126.67,143.56-123.54,236.65s57.93,182.46,139.38,227.69l.64.36-66.9,120.65-.64-.36c-59.95-33.28-111.54-83.38-149.18-144.88S579.81,639,577.44,570.46,591.56,431.92,624.93,368s81.42-117.42,139-154.71l.62-.4Zm13.86,465.67C813.67,772.2,779.54,739,754.6,698.22c-25.08-41-39.17-86.76-40.75-132.41s9.41-92.3,31.64-134.88c22.11-42.35,53.9-77.83,92-102.66L764.08,214.94C646.89,291.2,574.22,430.65,578.91,570.41s86.83,273.93,208.95,342Z"/><path class="cls-14" d="M870.06,749.58l-2.92-1.79q-61.66,99.15-123.31,198.31,3,1.84,6,3.64Z"/><path class="cls-14" d="M685,681.57C726.35,781,823.71,854.41,929.66,875.66v.39c-106.1-21.26-203.6-94.73-245-194.34-55.73-134.44-5.77-307.58,113-391.69l.22.31C679.21,374.35,629.31,547.29,685,681.57Z"/><path class="cls-14" d="M765.8,722.53q-1.33-1.76-2.63-3.54l-1,.7c.87,1.19,1.74,2.38,2.64,3.56Z"/><path class="cls-14" d="M770.35,728.41c-.92-1.15-1.83-2.31-2.72-3.47l-.95.73c.9,1.17,1.82,2.33,2.73,3.49Z"/><path class="cls-14" d="M775.06,734.15c-.95-1.13-1.88-2.26-2.82-3.4l-.93.75q1.4,1.72,2.83,3.41Z"/><path class="cls-14" d="M779.92,739.77q-1.46-1.66-2.91-3.32l-.91.78q1.44,1.68,2.92,3.34Z"/><path class="cls-14" d="M784.92,745.25q-1.51-1.61-3-3.24l-.88.8c1,1.1,2,2.18,3,3.26Z"/><path class="cls-14" d="M790.08,750.6q-1.55-1.57-3.08-3.16l-.86.83c1,1.06,2,2.12,3.09,3.17Z"/><path class="cls-14" d="M795.38,755.81c-1.06-1-2.11-2-3.16-3.08l-.84.85q1.58,1.55,3.17,3.09Z"/><path class="cls-14" d="M800.81,760.87c-1.09-1-2.18-2-3.24-3l-.82.87c1.08,1,2.17,2,3.26,3Z"/><path class="cls-14" d="M806.38,765.79q-1.67-1.44-3.33-2.9l-.79.89q1.66,1.47,3.34,2.92Z"/><path class="cls-14" d="M812.08,770.55q-1.71-1.39-3.4-2.81l-.77.91q1.7,1.42,3.41,2.82C811.57,771.16,811.83,770.86,812.08,770.55Z"/><path class="cls-14" d="M817.91,775.16q-1.75-1.35-3.48-2.72l-.74.93c1.16.92,2.32,1.82,3.49,2.73Z"/><path class="cls-14" d="M823.85,779.61c-1.19-.86-2.37-1.74-3.54-2.62l-.72,1c1.18.89,2.37,1.77,3.56,2.63Z"/><path class="cls-14" d="M829.92,783.89l-3.62-2.53-.69,1q1.81,1.28,3.63,2.54Z"/><path class="cls-14" d="M836.1,788c-1.24-.8-2.46-1.61-3.69-2.43l-.66,1c1.23.82,2.46,1.64,3.7,2.44Z"/><path class="cls-14" d="M842.39,792q-1.88-1.15-3.75-2.33l-.64,1q1.87,1.19,3.76,2.34Z"/><path class="cls-14" d="M848.78,795.75q-1.91-1.09-3.81-2.23l-.61,1q1.9,1.13,3.82,2.24C848.38,796.44,848.58,796.1,848.78,795.75Z"/><path class="cls-14" d="M855.27,799.36q-1.94-1-3.87-2.12l-.58,1q1.93,1.09,3.88,2.13Z"/><path class="cls-14" d="M861.86,802.8q-2-1-3.92-2l-.56,1.06c1.31.69,2.62,1.36,3.94,2Z"/><path class="cls-14" d="M868.54,806.05q-2-.94-4-1.91l-.53,1.07q2,1,4,1.92Z"/><path class="cls-14" d="M875.3,809.13c-1.35-.6-2.69-1.19-4-1.81-.16.36-.34.72-.5,1.08,1.34.62,2.69,1.22,4,1.82Z"/><path class="cls-14" d="M882.14,812c-1.36-.56-2.72-1.11-4.07-1.7l-.47,1.1q2,.87,4.09,1.7Z"/><path class="cls-14" d="M889.05,814.72c-1.37-.52-2.75-1-4.11-1.58l-.44,1.11c1.37.54,2.75,1.07,4.13,1.59Z"/><path class="cls-14" d="M896,817.24q-2.08-.72-4.16-1.47l-.41,1.12q2.08.76,4.18,1.48Z"/><path class="cls-14" d="M903.1,819.57q-2.1-.67-4.2-1.36c-.12.38-.26.75-.38,1.13q2.1.7,4.22,1.37Z"/><path class="cls-14" d="M910.21,821.71q-2.12-.61-4.24-1.25l-.35,1.14,4.25,1.25Z"/><path class="cls-14" d="M917.38,823.66c-1.42-.37-2.84-.75-4.26-1.13l-.32,1.15c1.42.4,2.85.77,4.28,1.14C917.18,824.43,917.27,824,917.38,823.66Z"/><path class="cls-14" d="M924.6,825.41q-2.15-.49-4.29-1l-.28,1.16c1.44.35,2.87.69,4.31,1C924.42,826.19,924.5,825.8,924.6,825.41Z"/><path class="cls-14" d="M769.56,762.46q-10-10.52-19-22l-.94.73q9,11.49,19,22.07Z"/><path class="cls-14" d="M797.73,788.49q-11.27-9.16-21.62-19.37l-.84.85q10.38,10.24,21.71,19.45Z"/><path class="cls-14" d="M829,810.71q-12.35-7.65-23.93-16.45l-.72.95q11.6,8.83,24,16.51Z"/><path class="cls-14" d="M862.84,828.74q-13.23-6-25.84-13.24l-.59,1q12.64,7.27,25.94,13.3Z"/><path class="cls-14" d="M898.73,842.28q-13.89-4.25-27.32-9.83l-.46,1.1q13.47,5.59,27.43,9.87Z"/><path class="cls-14" d="M929.66,851.16Q918.43,849,907.38,846l.31-1.15q10.88,3,22,5.08Z"/><path class="cls-14" d="M929.66,890a339.89,339.89,0,0,1-97.55-32.22l3-5.92a333.27,333.27,0,0,0,94.52,31.38Z"/><g class="cls-15"><path class="cls-16" d="M929.66,385.42a138.6,138.6,0,0,0-42.72,20c-39.49,25.2-70,68.85-80.09,114.58-10.67,48.33.06,95.69,24.39,137.66,21.52,37.13,58.65,61.51,98.42,75.16V860.6c-4.13-.74-8.26-1.54-12.4-2.45-166-36.65-270.77-200.89-234.12-366.85,27.63-125.11,127.79-215.46,246.52-236.66Z"/><path class="cls-16" d="M929.66,385.42a138.6,138.6,0,0,0-42.72,20c-39.49,25.2-70,68.85-80.09,114.58-10.67,48.33.06,95.69,24.39,137.66,21.52,37.13,58.65,61.51,98.42,75.16V860.6c-4.13-.74-8.26-1.54-12.4-2.45-166-36.65-270.77-200.89-234.12-366.85,27.63-125.11,127.79-215.46,246.52-236.66Z"/><path class="cls-16" d="M929.66,385.42a138.6,138.6,0,0,0-42.72,20c-39.49,25.2-70,68.85-80.09,114.58-10.67,48.33.06,95.69,24.39,137.66,21.52,37.13,58.65,61.51,98.42,75.16V860.6c-4.13-.74-8.26-1.54-12.4-2.45-166-36.65-270.77-200.89-234.12-366.85,27.63-125.11,127.79-215.46,246.52-236.66Z"/><path class="cls-17" d="M929.66,385.42a138.6,138.6,0,0,0-42.72,20c-39.49,25.2-70,68.85-80.09,114.58-10.67,48.33.06,95.69,24.39,137.66,21.52,37.13,58.65,61.51,98.42,75.16V860.6c-4.13-.74-8.26-1.54-12.4-2.45-166-36.65-270.77-200.89-234.12-366.85,27.63-125.11,127.79-215.46,246.52-236.66Z"/><path class="cls-18" d="M929.66,254.64C810.92,275.83,710.77,366.18,683.14,491.3c-36.65,166,68.17,330.19,234.12,366.85,4.13.91,8.27,1.71,12.4,2.45v84.23q-15.14-2.13-30.33-5.47c-210.81-46.56-344-255.19-297.4-466,36.22-164,170.58-281,327.73-302.94Z"/><path class="cls-19" d="M929.66,170.42C772.51,192.34,638.15,309.34,601.93,473.36c-46.56,210.81,86.59,419.44,297.4,466q15.18,3.35,30.33,5.47v62.8q-21.83-2.64-43.76-7.45c-244.39-54-398.75-295.85-344.78-540.24,42.66-193.14,202.68-330,388.54-352.31Z"/><path class="cls-19" d="M929.66,170.42C772.51,192.34,638.15,309.34,601.93,473.36c-46.56,210.81,86.59,419.44,297.4,466q15.18,3.35,30.33,5.47v62.8q-21.83-2.64-43.76-7.45c-244.39-54-398.75-295.85-344.78-540.24,42.66-193.14,202.68-330,388.54-352.31Z"/></g></g><path class="cls-20" d="M802,808.17A309,309,0,0,1,924.75,252.49c1.63-.3,3.27-.57,4.9-.84V252C809.39,272.39,707.41,363.49,679.53,489.72c-36.68,166.1,68.61,331.08,234.71,367.77q7.71,1.7,15.42,3v.31q-7.75-1.31-15.49-3A306.9,306.9,0,0,1,802,808.17Z"/><path class="cls-20" d="M929.66,167.67c-158.74,21-295.11,138.88-331.59,304.07-46.6,211,87.16,420.61,298.18,467.21,11.15,2.46,22.29,4.39,33.41,5.86v.32q-16.77-2.23-33.48-5.89a392.32,392.32,0,0,1,13.44-768.81q10-1.85,20-3.16Z"/></g></g></g></svg>