<svg xmlns="http://www.w3.org/2000/svg" viewBox="0 0 100 100"><path fill="#333" class="logo-gj" d="M32.46,55.49H17a14.94,14.94,0,0,0,4.61,7.59c1.44,1.25,4.8,3.46,11.14,3.46,4.9,0,9.22-1.15,13-5,2.69-2.69,5.38-7.39,5.38-14.69,0-6-1.92-11.43-5.47-15.17-3.07-3.27-7.39-5.19-13.25-5.19a16.06,16.06,0,0,0-9.79,3.07,19.4,19.4,0,0,0-5.67,6.91L3.55,29.27A35.41,35.41,0,0,1,13.93,17.84c6-3.94,12.67-4.8,18-4.8C39.47,13,49.17,14.2,57,22.36c5.38,5.47,9.22,13.83,9.22,24.29,0,12.77-5.67,20.55-9.41,24.39C49.36,78.72,41.1,80,33.42,80s-15.75-1.34-22.85-8.74S.67,52,.67,44.25v-.67H32.46Z"/><path fill="#333" class="logo-gj" d="M78.57,14.48V58c0,2.69.1,5.76,1.92,7.59A4.54,4.54,0,0,0,84,66.91a4.77,4.77,0,0,0,3.65-1.44,16.17,16.17,0,0,0,2.3-3.55l9.22,10.37a26.47,26.47,0,0,1-6,5.38c-3.36,2-6.72,2.3-10.18,2.3-4.13,0-9.31-.58-13.54-4.8C64.07,70,63.79,62.88,63.79,58.08V14.48Z"/></svg>
